<svg xmlns="http://www.w3.org/2000/svg" width="134" height="40" viewBox="0 0 134 40">
    <g fill="none" fill-rule="nonzero">
        <path fill="#1A1A1A" d="M55 17.009c0-1.625.294-2.876.884-3.754.589-.878 1.405-1.317 2.45-1.317 1.044 0 1.861.44 2.45 1.317.59.878.884 2.129.884 3.754s-.295 2.876-.884 3.754c-.589.877-1.406 1.316-2.45 1.316-1.044 0-1.861-.439-2.45-1.316-.59-.878-.884-2.13-.884-3.754zm5.26 0c0-.533-.031-1.037-.094-1.513a4.868 4.868 0 0 0-.316-1.246 2.192 2.192 0 0 0-.596-.848c-.25-.21-.556-.315-.92-.315s-.67.105-.92.315a2.19 2.19 0 0 0-.596.848c-.149.355-.254.77-.316 1.246a11.675 11.675 0 0 0-.094 1.513c0 .533.031 1.037.094 1.513.062.476.167.892.316 1.247.149.355.347.637.596.847.25.21.556.315.92.315s.67-.105.92-.315c.249-.21.448-.493.596-.847a4.85 4.85 0 0 0 .316-1.247c.064-.502.095-1.007.094-1.513zm2.691 0c0-1.625.295-2.876.884-3.754.59-.878 1.406-1.317 2.45-1.317 1.045 0 1.861.44 2.45 1.317.59.878.884 2.129.884 3.754s-.294 2.876-.884 3.754c-.589.877-1.405 1.316-2.45 1.316-1.044 0-1.86-.439-2.45-1.316-.59-.878-.884-2.13-.884-3.754zm5.26 0c0-.533-.03-1.037-.093-1.513a4.872 4.872 0 0 0-.317-1.247 2.196 2.196 0 0 0-.596-.847c-.25-.21-.556-.315-.92-.315s-.67.105-.92.315c-.249.21-.447.493-.596.847-.148.355-.254.77-.316 1.247a11.675 11.675 0 0 0-.094 1.513c0 .532.031 1.036.094 1.512.062.477.168.892.316 1.247.149.355.347.637.596.848.25.21.556.315.92.315s.67-.105.92-.315a2.19 2.19 0 0 0 .596-.848 4.87 4.87 0 0 0 .317-1.247c.063-.501.095-1.007.093-1.512zm2.691 0c0-1.625.295-2.876.884-3.754.59-.878 1.406-1.317 2.45-1.317 1.044 0 1.861.44 2.45 1.317.59.878.884 2.129.884 3.754s-.294 2.876-.883 3.754c-.59.877-1.406 1.316-2.45 1.316-1.045 0-1.862-.439-2.451-1.316-.589-.878-.883-2.13-.883-3.754zm5.26 0c0-.533-.031-1.037-.094-1.513a4.851 4.851 0 0 0-.316-1.247 2.196 2.196 0 0 0-.596-.847c-.249-.21-.556-.315-.92-.315s-.67.105-.92.315c-.249.21-.447.493-.596.847-.149.355-.254.77-.316 1.247a11.675 11.675 0 0 0-.093 1.513c0 .532.03 1.036.093 1.512.062.477.168.892.316 1.247.149.355.347.637.597.848.249.21.555.315.92.315.364 0 .67-.105.92-.315a2.19 2.19 0 0 0 .595-.848 4.85 4.85 0 0 0 .316-1.247c.064-.501.095-1.007.094-1.512zm9.23 4.86a57.067 57.067 0 0 1-.855-2.304 37.395 37.395 0 0 1-.826-2.696 39.994 39.994 0 0 1-.82 2.696 51.177 51.177 0 0 1-.847 2.304H80.88a35.537 35.537 0 0 1-1.293-3.291 56.668 56.668 0 0 1-1.193-3.992h1.437c.096.438.21.915.345 1.428.135.516.276 1.03.424 1.541.149.514.304 1.009.467 1.485.163.476.316.892.46 1.246.163-.439.323-.903.481-1.393.158-.49.31-.985.453-1.485.144-.5.28-.99.41-1.47.12-.449.233-.9.337-1.352h1.107c.086.42.192.87.316 1.351a55.639 55.639 0 0 0 .855 2.956c.158.49.318.955.481 1.393.144-.355.295-.77.453-1.246a48.128 48.128 0 0 0 1.243-4.454h1.38a56.668 56.668 0 0 1-1.193 3.992 35.626 35.626 0 0 1-1.293 3.291h-1.165zm4.488-3.628c0-.644.096-1.207.287-1.687.192-.481.446-.88.762-1.198.307-.312.68-.555 1.092-.714a3.49 3.49 0 0 1 1.265-.239c1.006 0 1.777.306 2.313.918.537.612.806 1.543.806 2.795v.216c0 .09-.005.17-.015.245h-5.116c.057.757.282 1.331.675 1.723.393.393 1.006.589 1.84.589.47 0 .864-.04 1.185-.12a4.32 4.32 0 0 0 .726-.23l.187 1.092c-.163.084-.448.173-.855.266-.407.094-.87.14-1.387.14-.652 0-1.214-.095-1.688-.287a3.144 3.144 0 0 1-1.172-.791 3.207 3.207 0 0 1-.682-1.198 4.94 4.94 0 0 1-.223-1.52zm5.13-.714c.01-.588-.141-1.072-.453-1.45-.31-.378-.74-.567-1.286-.567a1.804 1.804 0 0 0-1.408.63c-.165.191-.294.41-.38.645-.092.242-.152.49-.18.742h3.707zm4.502-2.62c.164-.102.41-.209.74-.321.331-.113.712-.169 1.143-.169.537 0 1.013.094 1.43.28.408.181.77.45 1.057.785.287.336.504.738.653 1.205.149.466.223.98.223 1.54 0 .589-.09 1.119-.266 1.59a3.34 3.34 0 0 1-.754 1.198c-.333.331-.735.59-1.179.756-.46.178-.977.266-1.552.266a9.655 9.655 0 0 1-1.653-.126c-.479-.084-.872-.168-1.178-.252V11.224L99.512 11v3.908zm0 5.828c.135.037.324.072.568.105a7.1 7.1 0 0 0 .913.049c.718 0 1.293-.231 1.724-.694.43-.462.646-1.118.646-1.968 0-.373-.038-.723-.114-1.05a2.332 2.332 0 0 0-.374-.848 1.795 1.795 0 0 0-.668-.56c-.273-.135-.601-.203-.985-.203-.364 0-.699.06-1.005.182-.307.122-.541.248-.705.378v4.609zm6.974 1.134V11.224l1.336-.224v3.726a4.694 4.694 0 0 1 1.638-.294c.595 0 1.088.081 1.48.244.394.164.708.393.942.687.235.294.4.647.496 1.057.096.411.144.864.144 1.36v4.09h-1.337v-3.81c0-.449-.03-.832-.093-1.15-.063-.317-.166-.574-.31-.77a1.22 1.22 0 0 0-.574-.427c-.24-.089-.536-.133-.89-.133-.145 0-.293.01-.447.028-.153.019-.299.04-.438.063-.125.021-.25.047-.374.077-.08.02-.16.043-.237.07v6.051h-1.336zm14.648-3.642c0 .58-.086 1.102-.258 1.57A3.565 3.565 0 0 1 120.15 21c-.31.335-.69.6-1.114.777a3.583 3.583 0 0 1-1.408.273 3.583 3.583 0 0 1-1.409-.273 3.192 3.192 0 0 1-1.113-.777 3.555 3.555 0 0 1-.726-1.205 4.5 4.5 0 0 1-.259-1.569c0-.57.086-1.09.259-1.561.173-.472.414-.876.726-1.212.309-.335.689-.6 1.113-.777a3.583 3.583 0 0 1 1.409-.274c.508 0 .977.091 1.408.274.431.182.802.44 1.114.777.311.336.553.74.726 1.212.172.471.258.992.258 1.561zm-1.394 0c0-.821-.19-1.473-.567-1.954-.379-.48-.893-.72-1.545-.72-.651 0-1.167.24-1.545.72-.379.481-.567 1.133-.567 1.954 0 .822.188 1.473.567 1.954.378.481.894.722 1.545.722.652 0 1.166-.24 1.545-.722.378-.48.567-1.132.567-1.954zm4.862 2.704c.546 0 .95-.07 1.214-.21.263-.14.395-.365.395-.673 0-.317-.129-.57-.388-.756-.259-.187-.685-.397-1.279-.63a19.766 19.766 0 0 1-.826-.344 2.912 2.912 0 0 1-.683-.413 1.81 1.81 0 0 1-.46-.574c-.115-.224-.172-.5-.172-.827 0-.644.244-1.155.733-1.533.488-.378 1.154-.568 1.998-.568.21 0 .421.012.632.035.21.024.407.052.589.084.182.033.343.068.482.105a4 4 0 0 1 .323.099l-.244 1.12a3.436 3.436 0 0 0-.676-.23 4.437 4.437 0 0 0-1.106-.12c-.374 0-.7.072-.978.217a.717.717 0 0 0-.416.68c0 .158.03.298.093.42a.976.976 0 0 0 .287.33c.13.097.29.188.482.272.191.084.421.173.69.266.354.13.67.26.948.385.258.114.497.262.712.441.196.169.347.372.452.61.106.238.158.53.158.875 0 .673-.256 1.181-.768 1.527-.513.345-1.244.518-2.192.518-.661 0-1.179-.053-1.552-.16a8.38 8.38 0 0 1-.762-.246l.244-1.12c.154.056.398.14.734.252.335.112.78.168 1.336.168zm5.767-6.345h2.83v1.092h-2.83v3.362c0 .364.028.665.086.903.057.238.143.425.258.56.115.136.26.232.431.288.173.056.375.084.604.084.403 0 .726-.045.97-.133.244-.09.415-.152.51-.19l.259 1.08a5.077 5.077 0 0 1-.704.244 4.099 4.099 0 0 1-1.15.147c-.507 0-.927-.063-1.257-.189a1.827 1.827 0 0 1-.798-.567 2.246 2.246 0 0 1-.424-.932 5.978 5.978 0 0 1-.122-1.281v-6.499l1.337-.225v2.256zM56.668 26.044c.573 0 1.013.1 1.32.302.308.2.461.53.461.987 0 .461-.155.794-.466.999-.31.205-.755.307-1.332.307h-.272v1.283h-.866v-3.778c.198-.038.398-.064.6-.078a7.89 7.89 0 0 1 .555-.022zm.055.736a3.08 3.08 0 0 0-.186.005 7.17 7.17 0 0 0-.158.011v1.107h.272c.3 0 .526-.04.677-.122.152-.08.228-.232.228-.453a.544.544 0 0 0-.059-.266.442.442 0 0 0-.166-.169.752.752 0 0 0-.264-.088 2.185 2.185 0 0 0-.344-.025zm3.596 1.223c0 .188.023.357.07.509.046.15.112.28.2.39a.885.885 0 0 0 .319.251c.125.06.27.089.433.089.159 0 .302-.03.43-.089a.879.879 0 0 0 .322-.251 1.16 1.16 0 0 0 .2-.39c.046-.152.069-.321.069-.51a1.75 1.75 0 0 0-.07-.511 1.158 1.158 0 0 0-.2-.393.878.878 0 0 0-.322-.252 1.014 1.014 0 0 0-.43-.088.912.912 0 0 0-.752.346c-.087.108-.153.24-.2.392-.046.153-.069.322-.069.507zm2.936 0c0 .328-.049.616-.147.865a1.78 1.78 0 0 1-.402.625 1.653 1.653 0 0 1-.608.38c-.243.086-.5.129-.757.127-.263 0-.511-.043-.744-.127a1.711 1.711 0 0 1-1.022-1.004c-.1-.25-.15-.538-.15-.866 0-.329.052-.617.156-.866a1.84 1.84 0 0 1 .42-.628c.172-.168.38-.299.61-.382.23-.085.474-.127.73-.127.262 0 .51.042.743.127a1.703 1.703 0 0 1 1.021 1.01c.1.249.15.537.15.866zm3.752-1.505l.147.511c.054.19.111.387.172.59.061.203.123.405.186.608.063.203.124.391.183.565.11-.43.206-.864.289-1.3.086-.461.17-.922.25-1.384h.899a39.628 39.628 0 0 1-.447 1.953c-.16.633-.343 1.26-.547 1.881h-.793c-.135-.369-.26-.74-.378-1.115-.122-.389-.243-.779-.36-1.17l-.356 1.17c-.118.39-.242.761-.372 1.115h-.794a28.305 28.305 0 0 1-.546-1.88 39.628 39.628 0 0 1-.447-1.954h.938a47.243 47.243 0 0 0 .408 2.07c.05.22.1.425.152.614.067-.181.131-.373.195-.576.063-.203.123-.406.183-.608.06-.203.114-.399.164-.587.05-.188.095-.356.136-.503h.738zm3.185 3.425v-3.835h2.598v.725h-1.732v.752h1.537v.709h-1.537v.924h1.86v.725h-2.726zm4.995-3.879c.577 0 1.02.102 1.327.307.306.205.46.523.46.954 0 .27-.062.488-.186.656-.124.168-.303.3-.535.395.077.096.159.206.244.33.27.393.509.806.71 1.236h-.97c-.072-.125-.142-.252-.215-.381a9.184 9.184 0 0 0-.447-.722 3.747 3.747 0 0 0-.222-.296h-.427v1.4h-.866v-3.78c.193-.037.389-.063.585-.077.202-.015.383-.022.542-.022zm.05.736a2.32 2.32 0 0 0-.17.005 15.52 15.52 0 0 0-.141.011v1.04h.244c.326 0 .56-.04.7-.121.14-.081.21-.22.21-.415 0-.188-.071-.322-.213-.401-.143-.08-.353-.12-.63-.12zm3.03 3.142v-3.834h2.597v.725h-1.732v.752h1.538v.709h-1.538v.924h1.86v.725h-2.725zM83 29.22a5.245 5.245 0 0 0 .333.011c.433 0 .754-.11.964-.327.208-.217.313-.518.313-.901 0-.403-.1-.707-.3-.913-.2-.207-.516-.31-.948-.31-.06 0-.121 0-.184.003-.06.001-.119.006-.178.013v2.424zm2.504-1.217c0 .331-.052.62-.156.868a1.609 1.609 0 0 1-.44.614c-.204.169-.441.293-.697.365-.3.085-.61.126-.922.122-.155 0-.337-.006-.544-.02a4.314 4.314 0 0 1-.61-.08v-3.734c.206-.037.414-.063.624-.075.186-.011.372-.018.558-.019a3.38 3.38 0 0 1 .896.11c.268.074.499.19.692.35.192.158.34.36.443.608.104.247.156.544.156.89zm4.344 1.97c-.21 0-.42-.007-.63-.02a4.467 4.467 0 0 1-.652-.092v-3.717c.193-.035.387-.06.583-.075.21-.017.407-.025.588-.025.245 0 .47.018.674.053.206.035.383.095.53.18a.94.94 0 0 1 .348.334.976.976 0 0 1 .124.512c0 .306-.147.548-.443.725.244.092.41.217.5.376.088.158.133.337.133.536 0 .402-.148.705-.442.908-.294.203-.732.304-1.313.304zm-.438-1.722v.99a4.6 4.6 0 0 0 .45.022c.259 0 .467-.036.626-.11.16-.073.24-.21.24-.41 0-.176-.067-.302-.2-.378-.134-.075-.324-.114-.572-.114h-.544zm0-.658h.422c.266 0 .456-.034.571-.102.115-.068.172-.178.172-.33 0-.154-.059-.263-.177-.326s-.293-.094-.522-.094l-.239.003a2.6 2.6 0 0 0-.227.014v.835zm4.611.072c.156-.262.304-.524.445-.786.139-.259.268-.523.388-.79h.955c-.207.405-.426.806-.655 1.2-.23.394-.469.783-.716 1.167v1.466h-.867v-1.455a30.76 30.76 0 0 1-.719-1.173c-.23-.396-.45-.798-.657-1.206H93.2c.118.266.246.53.382.791.137.262.283.524.439.786zm6.92-1.577h.867v3.834h-.866v-1.626h-1.455v1.626h-.866v-3.834h.866v1.466h1.455v-1.466zm2.986 1.915c0 .188.023.357.07.509.046.15.112.28.2.39a.883.883 0 0 0 .318.251c.126.06.27.089.433.089.159 0 .303-.03.43-.089a.883.883 0 0 0 .323-.251c.086-.11.153-.24.2-.39.045-.152.068-.321.068-.51 0-.188-.023-.358-.069-.511a1.158 1.158 0 0 0-.2-.393.878.878 0 0 0-.322-.252 1.014 1.014 0 0 0-.43-.088.912.912 0 0 0-.752.346c-.087.108-.154.24-.2.392-.046.153-.07.322-.07.507h.001zm2.936 0c0 .328-.049.616-.147.865a1.78 1.78 0 0 1-.402.625 1.653 1.653 0 0 1-.608.38c-.243.086-.5.129-.758.127a2.168 2.168 0 0 1-.744-.127 1.711 1.711 0 0 1-1.02-1.004c-.1-.25-.151-.538-.151-.866 0-.329.052-.617.155-.866.104-.25.244-.459.42-.628.173-.168.381-.299.61-.382a2.1 2.1 0 0 1 .73-.127c.263 0 .51.042.744.127.233.085.436.212.61.382.175.17.311.379.411.628.1.249.15.537.15.866zm2.275 1.26c.122 0 .223-.01.303-.03a.56.56 0 0 0 .191-.082.278.278 0 0 0 .1-.125.443.443 0 0 0 .028-.16c0-.126-.06-.23-.178-.313-.118-.083-.322-.172-.61-.268a4.613 4.613 0 0 1-.378-.152 1.392 1.392 0 0 1-.338-.216 1.033 1.033 0 0 1-.245-.315.991.991 0 0 1-.094-.451c0-.178.033-.337.1-.48.066-.141.16-.262.283-.361.122-.1.27-.177.444-.23.174-.054.37-.08.589-.08a2.396 2.396 0 0 1 1.137.265l-.25.68a2.37 2.37 0 0 0-.358-.146 1.555 1.555 0 0 0-.474-.063c-.207 0-.356.028-.447.085-.09.057-.136.145-.136.263 0 .07.017.13.05.177a.485.485 0 0 0 .141.13c.062.039.132.074.211.105.08.032.168.064.264.097.2.074.374.147.522.219.148.072.271.155.37.251a.909.909 0 0 1 .218.338c.048.129.072.286.072.47 0 .358-.125.635-.377.833-.251.197-.631.296-1.138.296a2.988 2.988 0 0 1-.824-.105 2.084 2.084 0 0 1-.464-.188l.245-.687c.114.063.256.12.424.17.169.05.375.074.62.074zm5.427-3.175v.736h-1.159v3.098h-.866v-3.097h-1.16v-.736h3.185zm1.06 0h.866v3.834h-.866v-3.834zm4.84 3.834c-.251-.443-.52-.877-.806-1.3-.283-.42-.59-.825-.92-1.211v2.511h-.856v-3.834h.705c.122.122.257.271.406.448a17.26 17.26 0 0 1 .91 1.192c.151.216.294.424.427.623v-2.263h.86v3.834h-.727zm3.995-3.17c-.403 0-.695.112-.874.335-.18.223-.27.528-.27.915 0 .189.023.36.067.512.045.153.111.285.2.396.089.11.2.196.333.257.134.06.289.091.467.091.095 0 .178-.001.246-.005.069-.004.129-.011.18-.022v-1.334h.867v1.898c-.104.04-.27.084-.5.13-.23.046-.513.07-.85.07a2.214 2.214 0 0 1-.784-.134 1.643 1.643 0 0 1-.603-.387 1.728 1.728 0 0 1-.386-.625 2.461 2.461 0 0 1-.136-.846c0-.321.05-.605.15-.852.092-.235.232-.448.411-.628.174-.171.383-.304.613-.39.24-.09.496-.135.753-.133.293-.003.586.038.868.119.143.04.28.099.408.174l-.25.692a2.262 2.262 0 0 0-.408-.164 1.74 1.74 0 0 0-.502-.069zm2.524 3.17v-3.834h2.599v.725h-1.732v.752h1.537v.709h-1.537v.924h1.86v.725h-2.726zm4.995-3.878c.578 0 1.02.102 1.327.307.308.205.461.523.461.954 0 .27-.062.488-.186.656-.124.168-.303.3-.536.395.078.096.16.206.245.33.27.393.508.806.71 1.236h-.972l-.213-.381a9.184 9.184 0 0 0-.447-.722 3.747 3.747 0 0 0-.222-.296h-.427v1.4h-.866v-3.78c.193-.037.389-.063.585-.077.202-.015.382-.022.541-.022zm.05.736a2.32 2.32 0 0 0-.169.005l-.141.011v1.04h.244c.326 0 .56-.04.7-.121.14-.081.21-.22.21-.415 0-.188-.07-.322-.213-.401-.143-.08-.353-.12-.63-.12z"/>
        <path fill="#FF5C62" d="M15.802 15.388c-2.05 18.809 14.853 21.71 19.653 16.307-8.451 20.96-28.304-2.75-19.653-16.307zm-3.25-2.35C5.25 14.087-5.6 37.347 7.25 34.696c-7.901-2.852.05-19.309 5.3-21.66zm0-2.952C10.002 8.886.7 12.437 0 19.59c1.75-3.802 6.301-8.954 12.552-9.504zm3.2-2.652c-3.9-3.05-8.551.451-10.001 1.251 3.9-4.552 9.751-3.801 10.001-1.25zm3.7-.95c2.701-2.451-1.35-7.103-5.25-3.351 1.4-.6 6.1-1.4 5.25 3.352zm4.452.7c5.15-4.902.85-6.802-.5-6.903 7.2-1.85 4 6.004.5 6.904zm.85 3.002c5.35 2.051 21.303-6.803 8.601-8.554 2.9.7 3.55 6.553-8.6 8.554h-.002zm-3.751 4.452c3.55 10.254 35.255 9.304 21.603-4.552 2.95 4.752-4.4 13.206-21.603 4.552z"/>
    </g>
</svg>
