<svg height="220" viewBox="0 0 290 220" width="290" xmlns="http://www.w3.org/2000/svg" xmlns:xlink="http://www.w3.org/1999/xlink"><defs><path id="a" d="m0 115.09h90.691v64.91h-90.691z"/><filter id="b" height="161.6%" width="144.1%" x="-22.1%" y="-29.3%"><feMorphology in="SourceAlpha" operator="dilate" radius=".5" result="shadowSpreadOuter1"/><feOffset dy="1" in="shadowSpreadOuter1" result="shadowOffsetOuter1"/><feGaussianBlur in="shadowOffsetOuter1" result="shadowBlurOuter1" stdDeviation="6"/><feColorMatrix in="shadowBlurOuter1" values="0 0 0 0 0.196078431 0 0 0 0 0.270588235 0 0 0 0 0.298039216 0 0 0 0.101316652 0"/></filter><rect id="c" height="22.097" rx="2" width="117.391"/><filter id="d" height="281%" width="134.1%" x="-17%" y="-86%"><feMorphology in="SourceAlpha" operator="dilate" radius=".5" result="shadowSpreadOuter1"/><feOffset dy="1" in="shadowSpreadOuter1" result="shadowOffsetOuter1"/><feGaussianBlur in="shadowOffsetOuter1" result="shadowBlurOuter1" stdDeviation="6"/><feColorMatrix in="shadowBlurOuter1" values="0 0 0 0 0.196078431 0 0 0 0 0.270588235 0 0 0 0 0.298039216 0 0 0 0.101316652 0"/></filter><rect id="e" height="128.9" rx="3" width="167.11" x="14.271" y="21.176"/><filter id="f" height="131%" width="123.9%" x="-12%" y="-14.7%"><feMorphology in="SourceAlpha" operator="dilate" radius=".5" result="shadowSpreadOuter1"/><feOffset dy="1" in="shadowSpreadOuter1" result="shadowOffsetOuter1"/><feGaussianBlur in="shadowOffsetOuter1" result="shadowBlurOuter1" stdDeviation="6"/><feColorMatrix in="shadowBlurOuter1" values="0 0 0 0 0.196078431 0 0 0 0 0.270588235 0 0 0 0 0.298039216 0 0 0 0.101316652 0"/></filter><rect id="g" height="62.148" rx="1" width="62.148" x="112.327" y="80.563"/><mask id="h" fill="#fff" height="62.148" width="62.148" x="0" y="0"><use xlink:href="#g"/></mask><rect id="i" height="62.148" rx="1" width="88.389" x="21.637" y="80.563"/><mask id="j" fill="#fff" height="62.148" width="88.389" x="0" y="0"><use xlink:href="#i"/></mask><rect id="k" height="50.179" rx="1" width="152.839" x="21.637" y="28.082"/><mask id="l" fill="#fff" height="50.179" width="152.839" x="0" y="0"><use xlink:href="#k"/></mask><rect id="m" height="47.877" rx="4" width="167.11"/><filter id="n" height="173.1%" width="120.9%" x="-9.3%" y="-32.4%"><feOffset dx="2" dy="2" in="SourceAlpha" result="shadowOffsetOuter1"/><feGaussianBlur in="shadowOffsetOuter1" result="shadowBlurOuter1" stdDeviation="5.5"/><feColorMatrix in="shadowBlurOuter1" values="0 0 0 0 0 0 0 0 0 0 0 0 0 0 0 0 0 0 0.104348776 0"/></filter><mask id="o" fill="#fff"><use fill="#fff" fill-rule="evenodd" xlink:href="#m"/></mask></defs><g fill="none" fill-rule="evenodd"><path d="m0 0h290v220h-290z" fill="#fff"/><g transform="translate(43 20)"><path d="m51.56 10.128h144.092v116.471h-144.092z" fill="#ff5c62"/><use fill="#000" filter="url(#b)" xlink:href="#a"/><use fill="#fff" xlink:href="#a"/><g transform="translate(59.386)"><use fill="#000" filter="url(#d)" xlink:href="#c"/><use fill="#fff" xlink:href="#c"/></g><g transform="translate(63.07 3.683)"><rect fill="#b2b9bc" height="14.271" opacity=".151" rx="5" width="14.271"/><path d="m2.46 9.905 2.21-5.192h1.046l2.21 5.192h-1.186l-.471-1.155h-2.18l-.472 1.156h-1.157zm2.033-2.158h1.37l-.685-1.672zm5.23 2.232c-.388 0-.71-.107-.969-.32-.257-.214-.386-.51-.386-.888v-.015c0-.417.143-.731.43-.942.288-.212.675-.317 1.16-.317.33 0 .651.054.966.162v-.066c0-.482-.283-.722-.847-.722-.34 0-.703.07-1.09.213l-.28-.854a3.771 3.771 0 0 1 1.532-.317c.594 0 1.038.147 1.333.442.285.285.427.705.427 1.26v2.29h-1.083v-.427c-.3.334-.697.501-1.193.501zm.339-.773c.26 0 .471-.065.633-.196a.61.61 0 0 0 .243-.497v-.199a1.675 1.675 0 0 0 -.714-.147c-.24 0-.43.047-.567.14a.46.46 0 0 0 -.206.405v.015c0 .147.056.264.169.35a.71.71 0 0 0 .442.129z" fill="#32454c" fill-rule="nonzero" opacity=".799"/></g><rect fill="#b2b9bc" height="14.271" opacity=".151" rx="5" width="14.271" x="81.944" y="3.683"/><rect height="5.66" rx="2" stroke="#58686e" width="8.514" x="84.823" y="7.989"/><g transform="translate(101.279 3.683)"><rect fill="#b2b9bc" height="14.271" opacity=".151" rx="5" width="14.271"/><rect height="1.854" rx=".927" stroke="#58686e" width="8.514" x="2.879" y="2.879"/><rect height="1.854" rx=".927" stroke="#58686e" width="8.514" x="2.879" y="6.684"/><path d="m4.281 10.465h5.708v1.427h-5.708z" fill="#58686e"/></g><rect fill="#b2b9bc" height="14.271" opacity=".151" rx="5" width="14.271" x="120.153" y="3.683"/><g fill="#58686e"><rect height="4.281" rx="2" width="4.281" x="122.532" y="6.062"/><rect height="4.281" rx="2" width="4.281" x="122.532" y="11.294"/><rect height="4.281" rx="2" width="4.281" x="127.764" y="6.062"/></g><g transform="translate(139.488 3.683)"><rect fill="#b2b9bc" height="14.271" opacity=".151" rx="5" width="14.271"/><path d="m10.368 3.806a2 2 0 0 1 2 2v2.66a2 2 0 0 1 -2 2h-6.465a2 2 0 0 1 -2-2v-2.66a2 2 0 0 1 2-2zm-4.528 2.654a1 1 0 0 0 -.132.496v.36a1 1 0 0 0 1.497.867l.314-.18a1 1 0 0 0 0-1.736l-.314-.18a1 1 0 0 0 -1.365.373z" fill="#58686e"/></g><g transform="translate(158.363 3.683)"><rect fill="#b2b9bc" height="14.271" opacity=".151" rx="5" width="14.271"/><path d="m5.348 8.617-2.451-1.073v-.699l2.451-1.073v.714l-1.712.703 1.712.704zm.304 1.008 2.243-4.689h.653l-2.243 4.69h-.653zm3.271-1.008v-.714l1.712-.703-1.712-.704v-.724l2.451 1.073v.699l-2.45 1.073z" fill="#32454c" fill-rule="nonzero" opacity=".799"/></g><path d="m204.381 110.452a.477.477 0 1 1 .001.955.477.477 0 0 1 0-.955zm-5.734 0a.477.477 0 1 1 .001.955.477.477 0 0 1 0-.955zm-5.734 0a.477.477 0 1 1 .001.955.477.477 0 0 1 0-.955zm-5.734 0a.477.477 0 1 1 .001.955.477.477 0 0 1 0-.955zm-5.734 0a.477.477 0 1 1 0 .955.477.477 0 0 1 0-.955zm-5.734 0a.477.477 0 1 1 0 .955.477.477 0 0 1 0-.955zm-5.734 0a.477.477 0 1 1 0 .955.477.477 0 0 1 0-.955zm-5.734 0a.477.477 0 1 1 0 .955.477.477 0 0 1 0-.955zm-5.734 0a.477.477 0 1 1 0 .955.477.477 0 0 1 0-.955zm-5.734 0a.477.477 0 1 1 0 .955.477.477 0 0 1 0-.955zm-5.734 0a.477.477 0 1 1 0 .955.477.477 0 0 1 0-.955zm-5.734 0a.477.477 0 1 1 0 .955.477.477 0 0 1 0-.955zm-5.734 0a.477.477 0 1 1 0 .955.477.477 0 0 1 0-.955zm-5.735 0a.477.477 0 1 1 .001.955.477.477 0 0 1 0-.955zm74.543-5.725a.477.477 0 1 1 .001.955.477.477 0 0 1 0-.955zm-5.734 0a.477.477 0 1 1 .001.955.477.477 0 0 1 0-.955zm-5.734 0a.477.477 0 1 1 .001.955.477.477 0 0 1 0-.955zm-5.734 0a.477.477 0 1 1 .001.955.477.477 0 0 1 0-.955zm-5.734 0a.477.477 0 1 1 0 .955.477.477 0 0 1 0-.955zm-5.734 0a.477.477 0 1 1 0 .955.477.477 0 0 1 0-.955zm-5.734 0a.477.477 0 1 1 0 .955.477.477 0 0 1 0-.955zm-5.734 0a.477.477 0 1 1 0 .955.477.477 0 0 1 0-.955zm-5.734 0a.477.477 0 1 1 0 .955.477.477 0 0 1 0-.955zm-5.734 0a.477.477 0 1 1 0 .955.477.477 0 0 1 0-.955zm-5.734 0a.477.477 0 1 1 0 .955.477.477 0 0 1 0-.955zm-5.734 0a.477.477 0 1 1 0 .955.477.477 0 0 1 0-.955zm-5.734 0a.477.477 0 1 1 0 .955.477.477 0 0 1 0-.955zm-5.735 0a.477.477 0 1 1 .001.955.477.477 0 0 1 0-.955zm74.543-5.725a.477.477 0 1 1 .001.955.477.477 0 0 1 0-.955zm-5.734 0a.477.477 0 1 1 .001.955.477.477 0 0 1 0-.955zm-5.734 0a.477.477 0 1 1 .001.955.477.477 0 0 1 0-.955zm-5.734 0a.477.477 0 1 1 .001.955.477.477 0 0 1 0-.955zm-5.734 0a.477.477 0 1 1 0 .955.477.477 0 0 1 0-.955zm-5.734 0a.477.477 0 1 1 0 .955.477.477 0 0 1 0-.955zm-5.734 0a.477.477 0 1 1 0 .955.477.477 0 0 1 0-.955zm-5.734 0a.477.477 0 1 1 0 .955.477.477 0 0 1 0-.955zm-5.734 0a.477.477 0 1 1 0 .955.477.477 0 0 1 0-.955zm-5.734 0a.477.477 0 1 1 0 .955.477.477 0 0 1 0-.955zm-5.734 0a.477.477 0 1 1 0 .955.477.477 0 0 1 0-.955zm-5.734 0a.477.477 0 1 1 0 .955.477.477 0 0 1 0-.955zm-5.734 0a.477.477 0 1 1 0 .955.477.477 0 0 1 0-.955zm-5.735 0a.477.477 0 1 1 .001.955.477.477 0 0 1 0-.955zm74.543-5.725a.477.477 0 1 1 .001.955.477.477 0 0 1 0-.955zm-5.734 0a.477.477 0 1 1 .001.955.477.477 0 0 1 0-.955zm-5.734 0a.477.477 0 1 1 .001.955.477.477 0 0 1 0-.955zm-5.734 0a.477.477 0 1 1 .001.955.477.477 0 0 1 0-.955zm-5.734 0a.477.477 0 1 1 0 .955.477.477 0 0 1 0-.955zm-5.734 0a.477.477 0 1 1 0 .955.477.477 0 0 1 0-.955zm-5.734 0a.477.477 0 1 1 0 .955.477.477 0 0 1 0-.955zm-5.734 0a.477.477 0 1 1 0 .955.477.477 0 0 1 0-.955zm-5.734 0a.477.477 0 1 1 0 .955.477.477 0 0 1 0-.955zm-5.734 0a.477.477 0 1 1 0 .955.477.477 0 0 1 0-.955zm-5.734 0a.477.477 0 1 1 0 .955.477.477 0 0 1 0-.955zm-5.734 0a.477.477 0 1 1 0 .955.477.477 0 0 1 0-.955zm-5.734 0a.477.477 0 1 1 0 .955.477.477 0 0 1 0-.955zm-5.735 0a.477.477 0 1 1 .001.955.477.477 0 0 1 0-.955zm74.543-5.725a.477.477 0 1 1 .001.955.477.477 0 0 1 0-.955zm-5.734 0a.477.477 0 1 1 .001.955.477.477 0 0 1 0-.955zm-5.734 0a.477.477 0 1 1 .001.955.477.477 0 0 1 0-.955zm-5.734 0a.477.477 0 1 1 .001.955.477.477 0 0 1 0-.955zm-5.734 0a.477.477 0 1 1 0 .955.477.477 0 0 1 0-.955zm-5.734 0a.477.477 0 1 1 0 .955.477.477 0 0 1 0-.955zm-5.734 0a.477.477 0 1 1 0 .955.477.477 0 0 1 0-.955zm-5.734 0a.477.477 0 1 1 0 .955.477.477 0 0 1 0-.955zm-5.734 0a.477.477 0 1 1 0 .955.477.477 0 0 1 0-.955zm-5.734 0a.477.477 0 1 1 0 .955.477.477 0 0 1 0-.955zm-5.734 0a.477.477 0 1 1 0 .955.477.477 0 0 1 0-.955zm-5.734 0a.477.477 0 1 1 0 .955.477.477 0 0 1 0-.955zm-5.734 0a.477.477 0 1 1 0 .955.477.477 0 0 1 0-.955zm-5.735 0a.477.477 0 1 1 .001.955.477.477 0 0 1 0-.955zm74.543-5.725a.477.477 0 1 1 .001.954.477.477 0 0 1 0-.954zm-5.734 0a.477.477 0 1 1 .001.954.477.477 0 0 1 0-.954zm-5.734 0a.477.477 0 1 1 .001.954.477.477 0 0 1 0-.954zm-5.734 0a.477.477 0 1 1 .001.954.477.477 0 0 1 0-.954zm-5.734 0a.477.477 0 1 1 0 .954.477.477 0 0 1 0-.954zm-5.734 0a.477.477 0 1 1 0 .954.477.477 0 0 1 0-.954zm-5.734 0a.477.477 0 1 1 0 .954.477.477 0 0 1 0-.954zm-5.734 0a.477.477 0 1 1 0 .954.477.477 0 0 1 0-.954zm-5.734 0a.477.477 0 1 1 0 .954.477.477 0 0 1 0-.954zm-5.734 0a.477.477 0 1 1 0 .954.477.477 0 0 1 0-.954zm-5.734 0a.477.477 0 1 1 0 .954.477.477 0 0 1 0-.954zm-5.734 0a.477.477 0 1 1 0 .954.477.477 0 0 1 0-.954zm-5.734 0a.477.477 0 1 1 0 .954.477.477 0 0 1 0-.954zm-5.735 0a.477.477 0 1 1 .001.954.477.477 0 0 1 0-.954zm74.543-5.726a.477.477 0 1 1 .001.955.477.477 0 0 1 0-.955zm-5.734 0a.477.477 0 1 1 .001.955.477.477 0 0 1 0-.955zm-5.734 0a.477.477 0 1 1 .001.955.477.477 0 0 1 0-.955zm-5.734 0a.477.477 0 1 1 .001.955.477.477 0 0 1 0-.955zm-5.734 0a.477.477 0 1 1 0 .955.477.477 0 0 1 0-.955zm-5.734 0a.477.477 0 1 1 0 .955.477.477 0 0 1 0-.955zm-5.734 0a.477.477 0 1 1 0 .955.477.477 0 0 1 0-.955zm-5.734 0a.477.477 0 1 1 0 .955.477.477 0 0 1 0-.955zm-5.734 0a.477.477 0 1 1 0 .955.477.477 0 0 1 0-.955zm-5.734 0a.477.477 0 1 1 0 .955.477.477 0 0 1 0-.955zm-5.734 0a.477.477 0 1 1 0 .955.477.477 0 0 1 0-.955zm-5.734 0a.477.477 0 1 1 0 .955.477.477 0 0 1 0-.955zm-5.734 0a.477.477 0 1 1 0 .955.477.477 0 0 1 0-.955zm-5.735 0a.477.477 0 1 1 .001.955.477.477 0 0 1 0-.955zm74.543-5.725a.477.477 0 1 1 .001.955.477.477 0 0 1 0-.955zm-5.734 0a.477.477 0 1 1 .001.955.477.477 0 0 1 0-.955zm-5.734 0a.477.477 0 1 1 .001.955.477.477 0 0 1 0-.955zm-5.734 0a.477.477 0 1 1 .001.955.477.477 0 0 1 0-.955zm-5.734 0a.477.477 0 1 1 0 .955.477.477 0 0 1 0-.955zm-5.734 0a.477.477 0 1 1 0 .955.477.477 0 0 1 0-.955zm-5.734 0a.477.477 0 1 1 0 .955.477.477 0 0 1 0-.955zm-5.734 0a.477.477 0 1 1 0 .955.477.477 0 0 1 0-.955zm-5.734 0a.477.477 0 1 1 0 .955.477.477 0 0 1 0-.955zm-5.734 0a.477.477 0 1 1 0 .955.477.477 0 0 1 0-.955zm-5.734 0a.477.477 0 1 1 0 .955.477.477 0 0 1 0-.955zm-5.734 0a.477.477 0 1 1 0 .955.477.477 0 0 1 0-.955zm-5.734 0a.477.477 0 1 1 0 .955.477.477 0 0 1 0-.955zm-5.735 0a.477.477 0 1 1 .001.955.477.477 0 0 1 0-.955zm74.543-5.725a.477.477 0 1 1 .001.955.477.477 0 0 1 0-.955zm-5.734 0a.477.477 0 1 1 .001.955.477.477 0 0 1 0-.955zm-5.734 0a.477.477 0 1 1 .001.955.477.477 0 0 1 0-.955zm-5.734 0a.477.477 0 1 1 .001.955.477.477 0 0 1 0-.955zm-5.734 0a.477.477 0 1 1 0 .955.477.477 0 0 1 0-.955zm-5.734 0a.477.477 0 1 1 0 .955.477.477 0 0 1 0-.955zm-5.734 0a.477.477 0 1 1 0 .955.477.477 0 0 1 0-.955zm-5.734 0a.477.477 0 1 1 0 .955.477.477 0 0 1 0-.955zm-5.734 0a.477.477 0 1 1 0 .955.477.477 0 0 1 0-.955zm-5.734 0a.477.477 0 1 1 0 .955.477.477 0 0 1 0-.955zm-5.734 0a.477.477 0 1 1 0 .955.477.477 0 0 1 0-.955zm-5.734 0a.477.477 0 1 1 0 .955.477.477 0 0 1 0-.955zm-5.734 0a.477.477 0 1 1 0 .955.477.477 0 0 1 0-.955zm-5.735 0a.477.477 0 1 1 .001.955.477.477 0 0 1 0-.955zm74.543-5.725a.477.477 0 1 1 .001.955.477.477 0 0 1 0-.955zm-5.734 0a.477.477 0 1 1 .001.955.477.477 0 0 1 0-.955zm-5.734 0a.477.477 0 1 1 .001.955.477.477 0 0 1 0-.955zm-5.734 0a.477.477 0 1 1 .001.955.477.477 0 0 1 0-.955zm-5.734 0a.477.477 0 1 1 0 .955.477.477 0 0 1 0-.955zm-5.734 0a.477.477 0 1 1 0 .955.477.477 0 0 1 0-.955zm-5.734 0a.477.477 0 1 1 0 .955.477.477 0 0 1 0-.955zm-5.734 0a.477.477 0 1 1 0 .955.477.477 0 0 1 0-.955zm-5.734 0a.477.477 0 1 1 0 .955.477.477 0 0 1 0-.955zm-5.734 0a.477.477 0 1 1 0 .955.477.477 0 0 1 0-.955zm-5.734 0a.477.477 0 1 1 0 .955.477.477 0 0 1 0-.955zm-5.734 0a.477.477 0 1 1 0 .955.477.477 0 0 1 0-.955zm-5.734 0a.477.477 0 1 1 0 .955.477.477 0 0 1 0-.955zm-5.735 0a.477.477 0 1 1 .001.955.477.477 0 0 1 0-.955z" fill="#601013"/><use fill="#000" filter="url(#f)" xlink:href="#e"/><use fill="#fff" xlink:href="#e"/><rect fill="#f3f4f4" height="118.233" rx="3" stroke="#58686e" width="156.442" x="19.835" y="26.28"/><use mask="url(#h)" opacity=".304" stroke="#32454c" stroke-dasharray="5" stroke-width="2" xlink:href="#g"/><use mask="url(#j)" opacity=".304" stroke="#32454c" stroke-dasharray="5" stroke-width="2" xlink:href="#i"/><path d="m72.545 112.826h-5.755v5.755h-1.918v-5.755h-5.754v-1.918h5.754v-5.755h1.918v5.755h5.755z" fill="#b9bfc1" fill-rule="nonzero"/><path d="m54.322 100.358h23.018v23.018h-23.018z"/><path d="m149.885 112.826h-5.755v5.755h-1.918v-5.755h-5.754v-1.918h5.754v-5.755h1.918v5.755h5.755z" fill="#b9bfc1" fill-rule="nonzero"/><path d="m131.662 100.358h23.018v23.018h-23.018z"/><use mask="url(#l)" opacity=".304" stroke="#32454c" stroke-dasharray="5" stroke-width="2" xlink:href="#k"/><g transform="translate(0 41.432)"><use fill="#000" filter="url(#n)" xlink:href="#m"/><use fill="#fff" xlink:href="#m"/><path d="m0 15.321h167.11v32.557h-167.11z" fill="#f4f5f5" mask="url(#o)"/></g><rect fill="#fd5b62" height="3.83" rx="1.915" width="45.836" x="60.637" y="65.37"/><rect fill="#b9bfc1" height="1.915" rx=".958" width="57.295" x="54.908" y="74.945"/><rect fill="#b9bfc1" height="1.915" rx=".958" width="29.602" x="69.232" y="78.776"/><ellipse cx="10.505" cy="49.093" fill="#f4f5f5" rx="4.775" ry="4.788"/><rect fill="#ff5c62" height="4.788" rx="1" width="3.82" x="8.595" y="46.699"/><rect fill="#fff" height="2.394" rx="1" width="3.82" x="8.595" y="49.093"/><rect fill="#b9bfc1" height="1.915" rx=".958" width="17.188" x="20.054" y="48.135"/><g fill="#b9bfc1"><rect height="1" rx=".5" width="17.188" x="110.77" y="48.614"/><rect height="1" rx=".5" width="19.098" x="85.942" y="48.614"/><rect height="1" rx=".5" width="10.504" x="133.688" y="48.614"/><rect height="1" rx=".5" width="11.459" x="149.921" y="48.614"/></g></g></g></svg>
