<svg height="520" viewBox="0 0 445 520" width="445" xmlns="http://www.w3.org/2000/svg" xmlns:xlink="http://www.w3.org/1999/xlink"><defs><path id="a" d="m0 0h445v520h-445z"/><mask id="b" fill="#fff"><use fill="#fff" fill-rule="evenodd" xlink:href="#a"/></mask><mask id="c" fill="#fff"><path d="m.954.665h20.116v32.925h-20.116z" fill="#fff" fill-rule="evenodd"/></mask><mask id="d" fill="#fff"><path d="m0 .39h40.504v40.395h-40.504z" fill="#fff" fill-rule="evenodd"/></mask><mask id="e" fill="#fff"><path d="m.156.074h64.484v48.48h-64.484z" fill="#fff" fill-rule="evenodd"/></mask><mask id="f" fill="#fff"><path d="m.184.39h30.756v26.835h-30.756z" fill="#fff" fill-rule="evenodd"/></mask></defs><g fill="none" fill-rule="evenodd"><use fill="#fff" xlink:href="#a"/><circle cx="223" cy="264" mask="url(#b)" r="214" stroke="#ff5c62" stroke-width="2"/><path d="m95 65.472 30.82 31.853h189.49l25.683-39.031-67.215-56.815-120.554-1.813zm-17.336 306.946-52.433 49.089c51.006 65.439 113.84 98.158 188.504 98.158 74.663 0 143.128-37.807 205.392-113.421l-55.021-42.347c-37.895 44.087-88.018 65.175-150.371 63.263-93.529-2.868-136.07-54.742-136.07-54.742z" fill="#fff" mask="url(#b)"/><path d="m311.995 352.389c.497 11.455-33.124 22.205-75.095 24.012-41.97 1.807-76.397-6.014-76.895-17.469-.496-11.454 33.124-22.205 75.095-24.012 41.97-1.807 76.398 6.014 76.895 17.469" fill="#b2b9bc"/><path d="m177.075 322.66s-1.574 19.009-.823 26.859c0 0-4.795 11.31 4.384 11.14 16.277-.303 23.614.352 27.364-26.185" fill="#fff"/><path d="m181.143 362.66c-3.417 0-5.133-1.5-5.974-2.773-2.309-3.493-.591-8.907.03-10.579-.651-8.213.782-26.179.845-26.953.081-1.016.95-1.775 1.944-1.688.992.084 1.73.975 1.649 1.991-.016.19-1.524 19.09-.81 26.75.028.304-.018.612-.135.894-.546 1.333-1.819 5.584-.536 7.52.195.294.783 1.185 3.146 1.146l1.355-.025c7.191-.127 12.387-.218 15.959-3.138 3.755-3.07 6.159-9.746 7.797-21.647.139-1.01 1.052-1.713 2.036-1.57.986.143 1.672 1.076 1.533 2.086-1.8 13.08-4.526 20.262-9.117 24.015-4.53 3.705-10.54 3.81-18.146 3.945l-1.35.024c-.076.002-.152.002-.226.002" fill="#32454c"/><path d="m151.74 273.25s-3.914 18.709 0 26.644l1.527-2.442s3.606 18.924 13.985 26.86v-2.747s11.905 17.092 21.368 21.976v-3.663s1.674 11.108 23.862 16.177c56.115 12.819 93.204-5.19 93.204-5.19 16.79-31.437-3.205-51.581-21.52-65.01-18.316-13.43-29.992-33.195-29.992-33.195" fill="#ff5c62"/><path d="m255 360.646c-.22-1.746-.98-3.432-2.561-4.868-6.551-5.952-17.437-6.118-17.437-6.118v4.766s-7.65 2.533-12.002 4.116c11.692 1.657 22.422 2.218 32 2.104m2.284-109.986-105.544 22.924s-3.915 18.857 0 26.855l1.53-2.46s3.608 19.073 13.992 27.071v-2.768s11.913 17.227 21.381 22.15v-3.692s1.598 10.657 22.297 15.92c-9.315-14.381 5.404-50.486 5.404-50.486l1.163 3.033c14.89-10.383 19.7-23.71 19.7-23.71l3.705 2.945c-.152-3.328 14.327-22.541 20.088-30.046-2.496-4.614-3.716-7.736-3.716-7.736" fill="#fff"/><path d="m252.496 362.66c-11.77 0-25.426-1.208-40.456-4.644-13.69-3.131-20.014-8.573-22.913-12.61a1.824 1.824 0 0 1 -1.435-.104c-7.254-3.748-15.626-14-19.666-19.333a1.825 1.825 0 0 1 -2.023-.133c-8.01-6.13-12.129-18.094-13.794-24.24a1.83 1.83 0 0 1 -2.284-.904c-4.154-8.431-.316-27.126-.15-27.917a1.827 1.827 0 0 1 2.164-1.418 1.831 1.831 0 0 1 1.416 2.167c-.895 4.295-2.534 15.374-1.17 22.321a1.829 1.829 0 0 1 2.708 1.244c.032.166 2.97 15.118 10.738 23.464a1.828 1.828 0 0 1 2.984.026c.105.152 9.634 13.762 18.087 19.81v-.389a1.83 1.83 0 0 1 1.692-1.826 1.826 1.826 0 0 1 1.945 1.554c.015.077 2.003 10.026 22.516 14.717 28.68 6.56 52.22 4.834 66.915 2.231 13.793-2.442 22.592-6.092 24.769-7.058 15.61-29.91-3.17-49.02-21.325-62.346-18.449-13.54-30.068-33.027-30.554-33.85a1.83 1.83 0 1 1 3.15-1.863c.115.196 11.742 19.676 29.567 32.76 7.77 5.704 18.768 14.657 24.542 26.513 6.163 12.655 5.342 26.468-2.44 41.055a1.828 1.828 0 0 1 -.815.784c-.388.19-9.71 4.662-26.095 7.583-7.35 1.31-16.855 2.406-28.073 2.406" fill="#32454c"/><path d="m209.756 329.66s-3.679 18.78-3.813 26.692c0 0-6.001 10.742 3.09 11.6 16.12 1.521 23.298 2.996 29.967-23.047" fill="#ff5c62"/><path d="m236 353.894c-3.527-3.117-8.807-5.06-14.543-3.89-9.836 2.004-15.063 0-15.063 0-.257 2.177-.429 4.16-.456 5.71 0 0-5.986 10.427 3.082 11.26 13.779 1.265 21.008 2.494 26.98-13.08" fill="#fff"/><path d="m218.908 370.66c-2.678 0-5.593-.279-8.787-.585l-1.374-.13c-3.63-.343-5.261-2.08-5.99-3.475-1.954-3.749.396-8.949 1.214-10.543.256-8.263 3.72-26.008 3.87-26.773a1.845 1.845 0 0 1 2.164-1.459 1.851 1.851 0 0 1 1.452 2.175c-.037.188-3.681 18.855-3.812 26.573a1.857 1.857 0 0 1 -.237.875c-.703 1.267-2.471 5.359-1.385 7.436.166.316.67 1.278 3.069 1.504l1.378.13c7.32.702 12.609 1.208 16.563-1.292 4.157-2.628 7.346-9.007 10.34-20.683a1.839 1.839 0 0 1 2.244-1.331 1.852 1.852 0 0 1 1.324 2.255c-3.29 12.833-6.863 19.68-11.945 22.893-2.948 1.863-6.276 2.43-10.088 2.43" fill="#32454c"/><path d="m252.062 336.66s-1.113 10.254 6.871 13.516c0 0-18.022.233-16.881 7.923-.908 9.498 39.456 15.991 61.948-8.03" fill="#ff5c62"/><path d="m271.883 353.61c-2.389-4.68-12.81-3.9-12.81-3.9s-18.17.229-17.02 7.81c-.674 6.894 21.928 12.943 42.947 6.204-1.958-4.28-11.27-6.494-13.117-10.114" fill="#fff"/><path d="m266.47 368.66c-7.264 0-14.113-1.216-19.036-3.494-5.661-2.618-6.472-5.696-6.391-7.44-.197-1.683.284-3.265 1.396-4.585 2.51-2.981 8.008-4.231 12.162-4.756-3.317-3.768-3.848-9.13-3.522-12.092a1.824 1.824 0 0 1 2.009-1.622 1.83 1.83 0 0 1 1.608 2.021c-.037.358-.84 8.792 5.744 11.447a1.837 1.837 0 0 1 1.113 2.038 1.824 1.824 0 0 1 -1.766 1.5c-4.436.06-12.316 1.155-14.575 3.84-.483.574-.65 1.153-.542 1.876.023.15.027.302.012.453-.115 1.186 1.521 2.714 4.27 3.985 6.22 2.878 16.393 3.893 25.919 2.59 8.493-1.163 20.59-4.63 29.994-14.542a1.81 1.81 0 0 1 2.573-.058c.726.7.752 1.862.058 2.594-10.131 10.679-23.067 14.4-32.135 15.642a65.857 65.857 0 0 1 -8.89.603" fill="#32454c"/><path d="m240.836 274.66s9.244-5.914 8.193-12.523l2.277.73s4.474-8.002 2.147-18.908l4.19 3.19s5.558-36.918-27.181-52.511c-39.67-18.894-83.862 10.388-84.848 40.66l3.397 1.247s-5.87 8.942-4.904 14.636l4.233-.447s.271 13.373 3.388 19.261l2.384-2.167s-2.871.244 4.032 3.004" fill="#ff5c62"/><path d="m154.1 267.8-2.38 2.176c-3.114-5.912-3.385-19.34-3.385-19.34l-4.228.448c-.964-5.718 4.899-14.697 4.899-14.697 4.664-2.287 8.154 1.706 9.318 8.914 1.164 7.209 9.827 7.482 11.342 4.904 1.515-2.579 1.27-6.066 15.881-9.66 11.313-2.784 8.425-36.142 6.545-51.06 6.018-1.182 16.297-.94 22.68-.23-7.39 14.767-16.438 48.034-7.341 50.605 3.058.864 14.59 1.108 19.044 8.89 4.454 7.78 14.642 4.442 17.543.98 4.201-5.014 9.312-5.898 9.312-5.898 2.324 10.95-2.145 18.986-2.145 18.986l-2.274-.733c1.05 6.637-8.184 12.575-8.184 12.575l-76.498-.572c-6.894-2.771-10.129-6.289-10.129-6.289" fill="#fff"/><path d="m241.108 276.66c-.6 0-1.19-.3-1.537-.849a1.851 1.851 0 0 1 .553-2.542c2.277-1.479 8.03-6.287 7.328-10.734-.1-.63.133-1.27.613-1.686a1.807 1.807 0 0 1 1.743-.356l.727.236c1.05-2.61 2.937-8.761 1.334-16.35a1.849 1.849 0 0 1 .806-1.939 1.807 1.807 0 0 1 2.08.09l1.527 1.174c.168-3.583.099-9.785-1.572-16.69-3.451-14.265-11.763-24.655-24.703-30.878-18.302-8.803-39.874-7.512-57.703 3.452-13.934 8.568-23.012 21.663-23.986 34.45l2.114.784c.522.194.928.618 1.102 1.15a1.855 1.855 0 0 1 -.206 1.588c-1.317 2.029-4.345 7.552-4.66 11.65l2.278-.243a1.81 1.81 0 0 1 1.396.45c.382.34.606.827.616 1.342.003.113.226 9.9 2.163 16.04.397-.376.95-.618 1.6-.673a1.81 1.81 0 0 1 1.825 1.097c.105.244.154.502.151.756.561.297 1.455.72 2.864 1.288a1.846 1.846 0 0 1 1.015 2.392 1.816 1.816 0 0 1 -2.368 1.026c-1.616-.652-2.89-1.222-3.823-1.788l-.654.6a1.812 1.812 0 0 1 -2.836-.5c-2.55-4.866-3.294-14.091-3.503-18.164l-2.273.243a1.825 1.825 0 0 1 -1.988-1.523c-.792-4.722 2.188-10.889 3.968-14.045l-1.301-.483a1.84 1.84 0 0 1 -1.194-1.788c.466-14.426 10.354-29.291 25.805-38.793 18.883-11.612 41.748-12.97 61.165-3.632 17.463 8.399 24.163 22.833 26.708 33.462 2.74 11.443 1.396 20.805 1.337 21.198a1.839 1.839 0 0 1 -1.117 1.432 1.808 1.808 0 0 1 -1.789-.242l-.645-.496c.622 9.103-2.793 15.406-2.962 15.71a1.814 1.814 0 0 1 -2.068.878c-1.038 6.43-8.585 11.38-8.95 11.616-.304.196-.644.29-.98.29" fill="#32454c"/><path d="m186 192.565s-24.514-55.286-44.415-44.512c-20.582 11.142-7.917 70.336 10.525 74.607" fill="#ff5c62"/><path d="m151.7 224.66a1.82 1.82 0 0 1 -.411-.047c-11.026-2.562-19.18-21.621-21.535-39.124-2.547-18.92 1.446-33.21 10.68-38.227 3.386-1.84 7.079-2.096 10.975-.762 17.72 6.065 34.72 44.143 35.435 45.76a1.823 1.823 0 0 1 -.923 2.403 1.811 1.811 0 0 1 -2.394-.926c-.169-.381-17.065-38.238-33.29-43.79-2.94-1.006-5.582-.836-8.076.519-9.248 5.023-10.615 21.134-8.811 34.535 2.47 18.352 10.709 34.193 18.757 36.064a1.82 1.82 0 0 1 1.359 2.185 1.817 1.817 0 0 1 -1.766 1.41" fill="#32454c"/><path d="m153.076 215.563s9.677-13.494 17.04-15.238c0 0-.783-2.773-5.678-1.968 0 0 1.343-3.984 6.833-3.925 0 0-2.8-5.448-8.406-5.178 0 0 5.281-5.021 9.135-4.232 0 0-20.81-37.815-31.076-30.397-10.42 7.528-3.329 63.691 12.152 60.938" fill="#ffc2c4"/><path d="m144.554 155.342c-.694 0-1.303.202-1.866.617-5.422 4.005-5.478 27.722-.105 44.522 2.743 8.577 6.356 13.497 9.913 13.498.036.009.056 0 .084 0 1.841-2.533 7.816-10.353 13.792-13.858a8.217 8.217 0 0 0 -1.332.122 1.798 1.798 0 0 1 -1.675-.622 1.863 1.863 0 0 1 -.338-1.779c.056-.172 1.202-3.496 5.13-4.738-1.101-1.067-2.728-2.091-4.872-1.988a1.821 1.821 0 0 1 -1.753-1.111 1.863 1.863 0 0 1 .413-2.057c.426-.415 3.708-3.52 7.267-4.531-6.681-11.783-18.156-28.075-24.658-28.075m7.943 62.318h-.002c-5.383 0-10.003-5.548-13.359-16.042-4.957-15.501-6.545-42.754 1.421-48.637a6.594 6.594 0 0 1 3.997-1.32c11.252 0 27.01 28.403 29.139 32.338.194.293.307.646.307 1.025 0 1.013-.805 1.834-1.8 1.84a2.052 2.052 0 0 1 -.386-.037 2.377 2.377 0 0 0 -.483-.047c-1.169 0-2.589.672-3.855 1.476 3.264 1.462 5.07 4.423 5.502 5.205.193.292.305.644.305 1.022 0 1.016-.811 1.84-1.812 1.84h-.128c-1.057 0-1.897.191-2.562.471 2.053.671 3.024 2.145 3.292 3.115.133.482.067.999-.183 1.43-.25.432-.662.742-1.142.858-5.39 1.304-13.16 10.976-15.7 14.593a1.81 1.81 0 0 1 -1.157.743 7.783 7.783 0 0 1 -1.394.127" fill="#32454c"/><path d="m225 193.796s30.707-52.073 49.159-39.043c19.082 13.477-.345 70.818-19.104 72.907" fill="#ff5c62"/><path d="m255.043 229.66c-.924 0-1.721-.689-1.825-1.62-.113-1 .615-1.901 1.625-2.012 8.326-.915 18.492-15.688 23.144-33.632 3.398-13.105 3.92-29.272-4.8-35.347-2.354-1.639-4.992-2.117-8.073-1.463-16.995 3.615-38.476 39.248-38.691 39.607a1.85 1.85 0 0 1 -2.52.64 1.812 1.812 0 0 1 -.646-2.496c.91-1.524 22.522-37.364 41.083-41.313 4.083-.868 7.77-.18 10.963 2.044 8.709 6.067 11.045 20.733 6.248 39.234-4.436 17.113-14.896 35.094-26.302 36.347a1.931 1.931 0 0 1 -.206.011" fill="#32454c"/><path d="m253.77 220.398s-8.2-14.984-15.315-17.565c0 0 1.105-2.66 5.877-1.295 0 0-.868-4.104-6.332-4.68 0 0 3.425-5.077 8.966-4.16 0 0-4.66-5.59-8.584-5.254 0 0 25.13-34.982 34.463-26.44 9.476 8.67-4.008 63.916-19.076 59.394" fill="#ffc2c4"/><path d="m255.503 218.949c.18.024.359.037.54.037 3.897 0 8.482-5.856 12.266-15.664 6.236-16.164 8.013-36.918 3.52-41.123-.63-.59-1.349-.863-2.265-.863-7.333 0-20.864 16.243-27.236 24.857 3.415 1.424 6.3 4.865 6.694 5.347.481.591.55 1.424.173 2.088a1.806 1.806 0 0 1 -1.87.895 6.086 6.086 0 0 0 -1.01-.086c-1.635 0-3.016.71-4.04 1.488 3.743 1.698 4.497 5.119 4.534 5.298.13.63-.075 1.285-.541 1.723a1.793 1.793 0 0 1 -1.736.419 8.205 8.205 0 0 0 -1.339-.283c5.592 4.267 10.749 13.059 12.31 15.867m.54 3.711a7.698 7.698 0 0 1 -2.258-.343 1.82 1.82 0 0 1 -1.068-.882c-2.153-4.021-8.879-14.88-14.081-16.81a1.824 1.824 0 0 1 -1.036-.984 1.86 1.86 0 0 1 -.017-1.44c.357-.88 1.49-2.268 3.63-2.7-.647-.367-1.492-.662-2.592-.78a1.815 1.815 0 0 1 -1.45-1.05 1.862 1.862 0 0 1 .134-1.8c.113-.17 2.339-3.48 6.195-4.679-1.33-1.076-2.803-1.94-3.972-1.94-.062 0-.123.003-.184.008a1.804 1.804 0 0 1 -1.73-.919 1.858 1.858 0 0 1 .097-1.977c2.063-2.938 20.485-28.704 31.853-28.704 1.832 0 3.421.619 4.724 1.838 7.012 6.563 2.912 30.87-2.602 45.163-2.594 6.722-8.075 18-15.642 18m-46.964 8.965a5.999 5.999 0 1 0 11.84-1.931 5.999 5.999 0 0 0 -11.84 1.931m-33-1a6 6 0 1 0 11.841-1.931 6 6 0 0 0 -11.842 1.93" fill="#32454c"/><path d="m157.5 255.66h90.5v16h-93.04s-12.698-5.926 2.54-16" fill="#fce9c8"/><path d="m155.252 270.03h91.077v-11.74h-88.425c-4.175 2.726-6.381 5.389-6.225 7.526.161 2.187 2.675 3.73 3.573 4.214m92.913 3.63h-93.353c-.26 0-.518-.054-.755-.16-.233-.104-5.684-2.594-6.039-7.421-.272-3.706 2.538-7.452 8.353-11.132.295-.187.639-.287.99-.287h90.804c1.013 0 1.835.813 1.835 1.815v15.37a1.825 1.825 0 0 1 -1.835 1.815" fill="#32454c"/><path d="m216 252.807s-5.676 12.876-18.784 5.654c0 0-14.83 6.733-18.216-6.8" fill="#fff"/><path d="m204.84 262.66c-2.461 0-5.046-.695-7.729-2.083-2.25.868-8.427 2.805-13.561.3-3.25-1.586-5.436-4.587-6.496-8.92a1.852 1.852 0 0 1 1.334-2.242c.98-.246 1.971.36 2.214 1.352.785 3.212 2.31 5.39 4.534 6.475 3.933 1.918 9.502.152 11.316-.69a1.807 1.807 0 0 1 1.65.065c3.549 2 6.782 2.53 9.608 1.572 4.556-1.543 6.768-6.489 6.79-6.538a1.82 1.82 0 0 1 2.407-.947 1.858 1.858 0 0 1 .94 2.432c-.113.263-2.845 6.466-8.942 8.551-1.312.45-2.669.673-4.066.673" fill="#32454c"/><path d="m186 241.203c-.047 3.917 5.011 11.376 11.363 11.457 6.35.08 11.589-7.249 11.637-11.166.047-3.916-5.08-5.75-11.431-5.83-6.35-.082-11.521 1.622-11.569 5.539" fill="#32454c"/><path d="m141 258.034s5.874-8.99 11.013-7.117c5.14 1.873 8.444 9.575-1.1 15.743z" fill="#fce9c8"/><path d="m143.283 257.737 7.799 6.783c3.02-2.253 4.516-4.811 4.238-7.295-.233-2.087-1.786-3.998-3.862-4.753a2.518 2.518 0 0 0 -.878-.153c-2.53 0-5.61 3.255-7.297 5.418m7.672 10.923a1.82 1.82 0 0 1 -1.195-.447l-10.13-8.81c-.69-.6-.832-1.62-.331-2.386.56-.855 5.628-8.357 11.28-8.357.732 0 1.446.125 2.124.372 3.401 1.238 5.852 4.294 6.243 7.785.274 2.448-.27 7.204-7.003 11.552a1.82 1.82 0 0 1 -.988.291" fill="#32454c"/><path d="m252.643 268s-5.721-7.815-7.702-6.9c-1.98.915-11.223 15.365 2.2 15.558 13.424.192 21.126-9.152 18.265-15.558-2.86-6.407-18.484-20.279-26.406-3.324" fill="#fce9c8"/><path d="m247.17 277.66c-.143 0-.285 0-.43-.002-6.488-.094-8.171-3.429-8.597-5.408-1.087-5.056 3.53-12.23 5.71-13.238.812-.375 3.288-1.52 9.755 7.32a1.794 1.794 0 0 1 -.401 2.517 1.821 1.821 0 0 1 -2.533-.398c-1.98-2.705-4.387-5.284-5.506-5.943-1.328 1.39-4.302 6.389-3.405 9.266.458 1.472 2.15 2.24 5.03 2.28 7.892.118 13.048-3.335 15.22-6.6 1.388-2.086 1.73-4.301.937-6.078-1.578-3.536-8.081-10.062-13.974-10.112h-.066c-3.473 0-6.316 2.318-8.45 6.89a1.818 1.818 0 0 1 -2.41.877 1.796 1.796 0 0 1 -.881-2.393c3.456-7.403 8.273-8.978 11.74-8.978l.098.001c7.881.067 15.313 7.893 17.259 12.255 1.303 2.922.857 6.394-1.226 9.524-2.66 3.999-8.738 8.22-17.87 8.22" fill="#32454c"/><path d="m158 272.21-14.469-16.55s-6.952.585-7.516 7.205 15.032 15.77 15.032 15.77 6.202.78 6.953-6.424" fill="#fce9c8"/><path d="m142.775 257.416c-1.59.347-4.732 1.499-5.063 5.222-.316 3.567 7.83 9.888 13.932 13.399 1.766-.003 3.918-.706 4.547-3.89l-13.416-14.73zm8.857 22.244a6.61 6.61 0 0 1 -.756-.037 1.883 1.883 0 0 1 -.698-.228 72.25 72.25 0 0 1 -8.063-5.41c-5.743-4.487-8.39-8.301-8.092-11.66.558-6.3 6.334-8.418 9.31-8.658a1.875 1.875 0 0 1 1.534.6l14.664 16.101c.347.382.514.89.459 1.397-.633 5.821-4.733 7.895-8.358 7.895z" fill="#32454c"/><path d="m198 258.66s-2.207-4.506-.063-10" fill="#fff"/><g fill="#32454c"><path d="m197.268 260.66c-.75 0-1.441-.51-1.661-1.294-.054-.192-1.3-4.754-.058-10.315.216-.966 1.146-1.567 2.076-1.344.931.224 1.512 1.188 1.296 2.154-1.04 4.659 0 8.465.01 8.502.266.953-.261 1.95-1.18 2.225-.16.05-.323.072-.483.072m-97.105-195.94 13.247-6.73c.15-.075.243-.076.32.073.076.15.02.225-.13.3l-3.769 1.916 16.402 17.959.15-.076-3.24-17.65-4.43-4.746-2.537 1.29c-.15.076-.243.076-.32-.073-.076-.15-.02-.225.13-.3l13.247-6.731c.15-.076.244-.077.32.073.075.15.02.224-.13.3l-3.77 1.915 16.403 17.96.149-.076-4.422-24.046-3.919 1.99c-.15.077-.243.077-.319-.072-.075-.149-.02-.224.13-.3l7.351-3.735c.149-.076.243-.077.319.072.075.15.02.225-.13.301l-2.985 1.517 5.723 31.225c.039.262.002.375-.221.488l-2.688 1.365c-.224.114-.336.077-.524-.108l-16.625-17.753-.15.076 4.385 23.97c.039.263.002.375-.221.489l-2.688 1.365c-.223.114-.336.077-.524-.109l-21.807-23.054-2.537 1.29c-.15.075-.243.076-.32-.074-.075-.149-.019-.224.13-.3m53.215-10.216c-.334.693-.245 2.214 1.495 7.193l3.161-1.105c.553-.194.619-.26.48-.656-1.768-5.057-2.402-5.856-3.095-6.19-.373-.18-.69-.202-1.125-.05-.396.138-.71.381-.916.808m.989-1.232c4.504-1.575 9.175 1.005 10.529 4.877.096.277.019.436-.297.547l-9.522 3.329.414 1.185c1.74 4.979 2.723 6.143 3.95 6.734.8.386 1.634.36 2.345.112 2.607-.912 4.158-3.582 4.454-5.903.024-.186.46-.205.411.034-.41 2.76-1.904 5.587-5.816 6.955-4.781 1.67-10.227-.461-12.105-5.835-1.879-5.373 1.132-10.461 5.637-12.035"/><path d="m8.708 33.165 3.033-.808-7.89-29.646-2.588.69c-.162.042-.254.023-.297-.139s.027-.223.19-.267l8.614-2.292c.324-.086.466-.038.552.286l7.89 29.646 2.549-.679c.162-.042.253-.024.296.138s-.027.224-.188.267l-12.053 3.208c-.162.043-.254.024-.297-.138s.028-.223.19-.266" mask="url(#c)" transform="translate(160.106 34.335)"/><path d="m194.262 52.382c-1.647.303-2.873-.578-3.13-1.978-.417-2.264 1.12-2.93.871-4.288-.204-1.111-1.344-1.753-2.702-1.503-.7.128-1.156.425-1.56 1.01-.672.975-.925 3.064.074 8.498.984 5.352 1.758 6.784 2.781 7.49.78.538 1.65.633 2.349.504 2.47-.454 4.705-2.652 5.392-5.162.052-.18.486-.132.4.096-.829 2.664-2.782 5.236-7.022 6.016-5.187.954-9.828-2.066-10.857-7.664-1.03-5.6 2.686-10.156 8.079-11.147 4.405-.81 7.512 1.044 8.012 3.761.378 2.058-.876 4.034-2.687 4.367m15.233 7.15c.453.382 1.017.585 1.767.522.75-.064 1.272-.36 1.653-.813.763-.905 1.076-2.654.58-8.493-.496-5.84-1.1-7.51-2.005-8.274-.453-.382-1.017-.585-1.767-.522-.751.064-1.272.36-1.653.813-.764.905-1.077 2.654-.58 8.493.496 5.84 1.1 7.51 2.005 8.274m1.803.939c-5.715.486-10.375-2.941-10.858-8.613-.482-5.672 3.658-9.848 9.247-10.323 5.59-.475 10.375 2.941 10.857 8.613.483 5.672-3.533 9.837-9.246 10.323m11.072-2.338 2.925.153.9-17.136-2.424-.128c-.167-.008-.249-.054-.24-.222.009-.167.095-.205.261-.195l8.527.447c.334.017.456.108.438.442l-.015.293c-.018.334-.19 2.001-.25 2.375l.12.09c.92-2.34 2.618-3.55 5.585-3.394 3.176.166 5.284 1.534 6.197 4.097.488-2.112 2.496-3.641 5.673-3.474 4.054.212 6.655 2.57 6.416 7.126l-.593 11.285 2.34.123c.168.009.25.055.24.222-.008.167-.094.205-.26.196l-10.91-.573c-.167-.009-.248-.055-.24-.222.009-.167.095-.204.262-.196l1.88.1.727-13.835c.103-1.965-.715-3.14-2.178-3.216-1.38-.073-2.945 1.019-3.077 3.527l-.696 13.249 1.881.099c.168.008.249.055.24.222s-.094.204-.262.196l-10.449-.55c-.167-.008-.25-.012-.24-.22.011-.21.095-.206.262-.197l1.88.099.728-13.835c.103-1.965-.716-3.139-2.138-3.214-1.295-.067-2.568 1.04-3.193 3.354l-.704 13.416 1.797.094c.167.01.248.056.24.223-.009.167-.095.204-.262.196l-11.41-.6c-.168-.008-.249-.054-.24-.222.009-.167.095-.204.262-.195m47.917-12.853c-.636.434-1.318 1.797-2.293 6.98l3.29.619c.576.108.666.082.743-.329.991-5.265.84-6.273.406-6.908-.233-.342-.498-.52-.95-.605a1.516 1.516 0 0 0 -1.196.243m1.471-.574c4.688.882 7.45 5.448 6.69 9.479-.054.287-.2.388-.53.326l-9.911-1.866-.233 1.234c-.976 5.182-.704 6.681.063 7.805.502.733 1.237 1.127 1.977 1.266 2.714.512 5.39-1.03 6.805-2.892.113-.15.501.052.339.234-1.732 2.187-4.438 3.892-8.51 3.126-4.977-.937-8.632-5.501-7.579-11.095 1.053-5.593 6.2-8.5 10.89-7.617m22.445 5.89 2.422.808.994-2.978c1.23.411 5.043.228 6.314-1.73l1.47.49-2.148 6.431 3.533 1.18c.159.053.225.12.172.278-.053.159-.146.172-.305.12l-3.533-1.18-4.559 13.657c-.596 1.786-.306 2.369.529 2.647.833.278 2.051-.198 3.574-1.586.132-.133.423.185.29.317-2.105 1.945-3.971 2.646-6.393 1.837-3.852-1.285-5.213-3.682-3.795-7.93l3.724-11.156-2.421-.808c-.16-.053-.226-.12-.173-.278.053-.16.146-.172.305-.12m16.201 24.415c.218.55.618.996 1.31 1.295.69.299 1.29.283 1.84.065 1.1-.436 2.204-1.829 4.529-7.208 2.323-5.38 2.581-7.137 2.145-8.237-.219-.55-.618-.997-1.31-1.296-.692-.3-1.29-.284-1.84-.066-1.102.437-2.204 1.83-4.528 7.208-2.325 5.38-2.582 7.138-2.146 8.238m1.143 1.68c-5.264-2.274-7.749-7.497-5.491-12.723 2.257-5.225 7.88-6.946 13.028-4.722 5.149 2.225 7.75 7.498 5.492 12.723-2.257 5.226-7.764 6.996-13.029 4.722"/></g><path d="m3.067 31.556c-.009 1.409.563 2.82 1.881 4.155 1.319 1.333 2.724 1.922 4.133 1.93 2.735.017 5.064-1.461 15.984-12.254 10.92-10.792 12.426-13.104 12.442-15.837.009-1.409-.563-2.822-1.881-4.155-1.318-1.334-2.724-1.923-4.133-1.93-2.734-.017-5.064 1.461-15.984 12.253s-12.426 13.103-12.442 15.839m32.975-26.576c7.209 7.294 5.44 19.01-3.562 27.908-9.003 8.898-20.575 10.694-27.949 3.233-7.373-7.461-5.44-19.011 3.563-27.908 9.003-8.897 20.74-10.528 27.948-3.233" fill="#ff5c62" mask="url(#d)" transform="translate(50 391.113)"/><path d="m87.842 452.464c.277 1.381 1.123 2.648 2.683 3.688 1.561 1.04 3.057 1.33 4.438 1.054 2.681-.537 4.663-2.456 13.173-15.235 8.51-12.778 9.517-15.347 8.979-18.028-.277-1.38-1.123-2.65-2.683-3.688-1.561-1.04-3.056-1.331-4.438-1.055-2.68.538-4.663 2.457-13.173 15.235-8.51 12.78-9.517 15.347-8.979 18.029m26.914-32.697c8.536 5.684 9.175 17.516 2.16 28.05-7.017 10.536-17.985 14.637-26.715 8.823s-9.175-17.516-2.159-28.051 18.18-14.506 26.714-8.822m13.219 54.837c.553 1.296 1.639 2.364 3.379 3.064s3.263.68 4.559.127c2.515-1.072 4.064-3.355 9.79-17.6 5.728-14.244 6.19-16.964 5.117-19.479-.553-1.297-1.64-2.364-3.38-3.064-1.739-.7-3.262-.68-4.558-.127-2.516 1.073-4.065 3.355-9.792 17.6-5.726 14.244-6.188 16.964-5.115 19.48m19.685-37.496c9.514 3.825 12.552 15.277 7.83 27.021-4.72 11.743-14.623 17.994-24.355 14.081-9.732-3.912-12.552-15.277-7.831-27.02 4.721-11.744 14.841-17.908 24.356-14.082" fill="#ff5c62"/><path d="m.541.08 20.677 2.283c.233.026.343.097.317.33s-.149.278-.381.253l-5.883-.65 5.427 33.614.233.025 9.748-23.154-1.546-8.955-3.96-.437c-.234-.025-.344-.096-.318-.33.026-.232.149-.278.381-.252l20.677 2.283c.233.025.343.097.318.33-.026.233-.149.278-.382.252l-5.883-.65 5.427 33.614.233.026 13.27-31.55-6.116-.675c-.233-.026-.343-.097-.317-.33.025-.233.148-.278.38-.252l11.476 1.265c.233.027.343.097.317.33-.025.233-.148.278-.381.253l-4.66-.515-17.255 40.955c-.155.336-.284.44-.634.402l-4.194-.463c-.349-.04-.453-.169-.53-.531l-5.849-33.541-.233-.025-13.256 31.432c-.155.337-.285.44-.635.402l-4.193-.463c-.35-.038-.453-.168-.53-.53l-7.849-43.726-3.959-.437c-.235-.026-.345-.097-.318-.33.025-.233.148-.278.38-.252" fill="#32454c" mask="url(#e)" transform="translate(162.593 445.944)"/><path d="m233.924 468.121c-.684.833-1.066 2.932-.341 10.279l4.665-.46c.816-.08.927-.15.87-.734-.737-7.464-1.335-8.759-2.168-9.442-.449-.368-.874-.503-1.515-.44-.584.058-1.09.284-1.511.797m1.75-1.35c6.648-.656 12.151 4.395 12.715 10.11.04.408-.118.6-.584.647l-14.054 1.385.173 1.75c.724 7.348 1.678 9.255 3.15 10.464.962.788 2.105 1.03 3.154.926 3.849-.38 6.838-3.5 8.009-6.56.093-.245.694-.128.548.182-1.469 3.618-4.436 6.972-10.209 7.542-7.056.695-13.76-4.002-14.542-11.933-.782-7.93 4.993-13.858 11.64-14.513m35.09-4.066a3.19 3.19 0 0 0 -2.449-.323c-1.812.48-2.862 2.698-2.796 5.468l3.821 14.445c1.136 2.003 3.127 3.113 4.939 2.634a3.191 3.191 0 0 0 1.97-1.491c1-1.719 1.068-3.98-.76-10.89-1.828-6.912-3.006-8.843-4.725-9.843m6.994 23c-3.342.884-6.167.056-8.014-1.88l-.098.087c.222.608.282.834.506 1.684l.21.793c.12.453-.035.555-.488.675l-12.236 3.236c-.227.06-.355.034-.415-.192-.06-.227.039-.314.265-.374l3.909-1.034-10.984-41.523-3.286.87c-.227.06-.34.089-.414-.194-.076-.283.038-.313.264-.373l11.727-3.103c.453-.119.652-.05.772.402l3.777 14.276c.315 1.19 1.4 5.751 1.673 7.012l.128.027c.557-2.935 2.219-5.132 5.9-6.106 6.402-1.694 11.984 2.224 14.052 10.041 2.068 7.818-.847 13.983-7.248 15.677m23.525-29.34 7.82 16.33 2.326-1.113c.158-.076.29-.074.39.138.101.21.021.315-.137.39l-14.481 6.935c-.212.102-.343.1-.444-.112s-.02-.315.19-.417l3.7-1.772-18.55-38.738-3.12 1.493c-.158.076-.288.073-.39-.138-.1-.211-.02-.315.138-.39l10.993-5.265c.423-.202.631-.173.834.25l7.618 15.908c.456.951 1.586 3.854 2.062 5.12l.209.03c-.517-3.521.847-6.643 4.547-8.414 5.179-2.481 10.062-1.375 12.82 4.385l6.833 14.27 3.013-1.443c.158-.076.289-.073.39.138.102.211.021.315-.138.39l-13.9 6.657c-.21.1-.341.099-.442-.113-.102-.211-.022-.314.19-.416l2.431-1.164-8.377-17.493c-1.19-2.484-2.93-3.405-4.885-2.469-1.745.836-2.653 3.415-1.64 7.023m43.421-4.497c.819.131 1.642-.03 2.497-.648.854-.618 1.265-1.349 1.397-2.168.263-1.636-.623-3.96-5.431-10.608-4.808-6.646-6.738-8.215-8.374-8.478-.818-.132-1.642.03-2.496.648-.855.618-1.266 1.35-1.397 2.168-.263 1.637.623 3.96 5.43 10.607 4.808 6.648 6.738 8.217 8.374 8.479m2.84-.173c-6.505 4.704-14.568 3.956-19.238-2.502-4.67-6.457-2.715-14.452 3.647-19.054 6.362-4.601 14.568-3.955 19.238 2.502s2.858 14.35-3.647 19.054m25.224-27.757c-1.27-1.3-3.256-1.487-5.922-.274l-3.374 1.494c-4.415 1.94-7.47.91-9.722-1.395-3.113-3.185-3.719-8.247.598-12.466 2.22-2.172 3.749-1.78 4.965-2.97.503-.49.675-1.069.555-1.443-.08-.25-.12-.375.047-.538.168-.164.292-.121.456.046l4.751 4.861c.164.168.162.334-.005.498-.168.163-.292.12-.456-.047-2.669-2.144-6.803-3.02-9.653-.234-1.676 1.638-2.114 3.705-.64 5.213 1.066 1.09 2.761 1.4 5.177.35l4.29-1.899c4.707-2.142 7.765-1.445 10.346 1.196 3.441 3.519 3.038 9.814-1.404 14.156-3.06 2.99-5.251 2.592-6.425 3.74-.545.531-.593 1.153-.353 1.9.08.25.12.376-.047.54-.168.163-.292.12-.456-.048l-6.144-6.286c-.164-.167-.204-.291-.037-.455.168-.164.25-.08.456.046 3.62 2.362 8.867 3.79 12.177.553 2.221-2.17 2.582-4.735.82-6.538" fill="#32454c"/><path d="m1.378 16.75 2.235-2.788-3.43-2.748c1.137-1.418 2.745-6.514.789-9.134l1.355-1.691 7.407 5.938 3.262-4.07c.146-.182.265-.238.448-.09.183.146.156.274.01.457l-3.263 4.07 15.729 12.606c2.058 1.649 2.964 1.55 3.733.589.77-.96.735-2.79-.351-5.464-.11-.238.448-.466.558-.228 1.534 3.708 1.55 6.499-.686 9.288-3.555 4.435-7.363 5.062-12.255 1.14l-12.848-10.295-2.236 2.788c-.147.183-.266.238-.449.092-.183-.147-.155-.275-.008-.458" fill="#32454c" mask="url(#f)" transform="translate(363.922 384.416)"/></g></svg>
