<svg height="220" viewBox="0 0 290 220" width="290" xmlns="http://www.w3.org/2000/svg" xmlns:xlink="http://www.w3.org/1999/xlink"><defs><rect id="a" height="158.698" rx="79.083" width="158.166" x="47.929" y="14.911"/><mask id="b" fill="#fff" height="158.698" width="158.166" x="0" y="0"><use xlink:href="#a"/></mask><circle id="c" cx="13.047" cy="13.047" r="13.047"/><filter id="d" height="192%" width="192%" x="-46%" y="-46%"><feOffset in="SourceAlpha" result="shadowOffsetOuter1"/><feGaussianBlur in="shadowOffsetOuter1" result="shadowBlurOuter1" stdDeviation="4"/><feColorMatrix in="shadowBlurOuter1" values="0 0 0 0 0 0 0 0 0 0 0 0 0 0 0 0 0 0 0.100524476 0"/></filter><rect id="e" height="70.296" rx="3" width="111.834" x="7.988" y="7.988"/><filter id="f" height="185.4%" width="153.7%" x="-26.8%" y="-42.7%"><feOffset in="SourceAlpha" result="shadowOffsetOuter1"/><feGaussianBlur in="shadowOffsetOuter1" result="shadowBlurOuter1" stdDeviation="10"/><feColorMatrix in="shadowBlurOuter1" values="0 0 0 0 0 0 0 0 0 0 0 0 0 0 0 0 0 0 0.101343969 0"/></filter><rect id="g" height="15.976" rx="7.988" width="15.976"/><filter id="h" height="331.6%" width="331.6%" x="-115.8%" y="-109.5%"><feOffset dy="1" in="SourceAlpha" result="shadowOffsetOuter1"/><feGaussianBlur in="shadowOffsetOuter1" result="shadowBlurOuter1" stdDeviation="6"/><feColorMatrix in="shadowBlurOuter1" values="0 0 0 0 0.196078431 0 0 0 0 0.270588235 0 0 0 0 0.298039216 0 0 0 0.101316652 0"/></filter><ellipse id="i" cx="10.526" cy="10.544" rx="10.526" ry="10.544"/><rect id="j" height="35.148" rx="3" width="92.663" y="9.586"/><filter id="k" height="270.7%" width="164.8%" x="-32.4%" y="-85.4%"><feOffset in="SourceAlpha" result="shadowOffsetOuter1"/><feGaussianBlur in="shadowOffsetOuter1" result="shadowBlurOuter1" stdDeviation="10"/><feColorMatrix in="shadowBlurOuter1" values="0 0 0 0 0 0 0 0 0 0 0 0 0 0 0 0 0 0 0.101343969 0"/></filter><rect id="l" height="15.976" rx="7.988" width="15.976"/><filter id="m" height="350.4%" width="350.4%" x="-125.2%" y="-118.9%"><feMorphology in="SourceAlpha" operator="dilate" radius=".5" result="shadowSpreadOuter1"/><feOffset dy="1" in="shadowSpreadOuter1" result="shadowOffsetOuter1"/><feGaussianBlur in="shadowOffsetOuter1" result="shadowBlurOuter1" stdDeviation="6"/><feColorMatrix in="shadowBlurOuter1" values="0 0 0 0 0.196078431 0 0 0 0 0.270588235 0 0 0 0 0.298039216 0 0 0 0.101316652 0"/></filter><rect id="n" height="20.237" rx="3" width="56.982" y="11.183"/><filter id="o" height="307.5%" width="173.7%" x="-36.9%" y="-103.8%"><feOffset in="SourceAlpha" result="shadowOffsetOuter1"/><feGaussianBlur in="shadowOffsetOuter1" result="shadowBlurOuter1" stdDeviation="7"/><feColorMatrix in="shadowBlurOuter1" values="0 0 0 0 0 0 0 0 0 0 0 0 0 0 0 0 0 0 0.100524476 0"/></filter><rect id="p" height="22.367" rx="11.183" width="22.367"/><filter id="q" height="278.8%" width="278.8%" x="-89.4%" y="-84.9%"><feMorphology in="SourceAlpha" operator="dilate" radius=".5" result="shadowSpreadOuter1"/><feOffset dy="1" in="shadowSpreadOuter1" result="shadowOffsetOuter1"/><feGaussianBlur in="shadowOffsetOuter1" result="shadowBlurOuter1" stdDeviation="6"/><feColorMatrix in="shadowBlurOuter1" values="0 0 0 0 0.196078431 0 0 0 0 0.270588235 0 0 0 0 0.298039216 0 0 0 0.101316652 0"/></filter><ellipse id="r" cx="20.743" cy="24.881" rx="20.743" ry="20.918"/><filter id="s" height="214.7%" width="215.7%" x="-57.9%" y="-57.4%"><feOffset in="SourceAlpha" result="shadowOffsetOuter1"/><feGaussianBlur in="shadowOffsetOuter1" result="shadowBlurOuter1" stdDeviation="8"/><feColorMatrix in="shadowBlurOuter1" values="0 0 0 0 0 0 0 0 0 0 0 0 0 0 0 0 0 0 0.100524476 0"/></filter><rect id="t" height="11.45" rx="3" width="23.144"/><filter id="u" height="1383.9%" width="735.1%" x="-317.6%" y="-641.9%"><feOffset in="SourceAlpha" result="shadowOffsetOuter1"/><feGaussianBlur in="shadowOffsetOuter1" result="shadowBlurOuter1" stdDeviation="24.5"/><feColorMatrix in="shadowBlurOuter1" values="0 0 0 0 0 0 0 0 0 0 0 0 0 0 0 0 0 0 0.101343969 0"/></filter><mask id="v" fill="#fff"><use fill="#fff" fill-rule="evenodd" xlink:href="#i"/></mask></defs><g fill="none" fill-rule="evenodd"><path d="m0 0h290v220h-290z" fill="#fff"/><g transform="translate(17 20)"><rect fill="#6f7c81" height="103.846" rx="3" width="153.373" x="44.201" y="40.473"/><g fill="#fff" transform="translate(44.201 40.473)"><rect height="36.962" opacity=".147" rx="4" width="144.609" x="4.382" y="17.601"/><path d="m0 0h153.373v13.201h-153.373z" opacity=".148"/><rect height="28.162" opacity=".198" rx="3" width="70.113" x="8.764" y="22.001"/><rect height="3.52" opacity=".198" rx="1.76" width="56.967" x="85.451" y="30.802"/><rect height="3.52" opacity=".198" rx="1.76" width="33.742" x="97.282" y="37.842"/><ellipse cx="5.697" cy="6.6" opacity=".198" rx="1.315" ry="1.32"/><ellipse cx="10.955" cy="6.6" opacity=".198" rx="1.315" ry="1.32"/><ellipse cx="16.214" cy="6.6" opacity=".198" rx="1.315" ry="1.32"/><rect height="5.28" opacity=".198" rx="2.64" width="127.519" x="21.472" y="3.96"/><rect height="40.482" opacity=".147" rx="3" width="45.135" x="4.382" y="58.963"/><rect height="40.482" opacity=".147" rx="3" width="45.574" x="53.9" y="58.963"/><rect height="40.482" opacity=".147" rx="3" width="45.135" x="103.855" y="58.963"/></g><use mask="url(#b)" stroke="#b2b9bc" stroke-dasharray="10" stroke-width="2" xlink:href="#a"/><g transform="translate(101.183)"><use fill="#000" filter="url(#d)" xlink:href="#c"/><use fill="#fff" xlink:href="#c"/></g><path d="m114.497 7.456c-2.936 0-5.325 2.15-5.325 4.793 0 2.8 2.684 5.063 5.858 4.767v1.673l.82-.527c.603-.386 3.625-2.464 3.942-5.405.02-.167.03-.337.03-.508 0-2.643-2.389-4.793-5.325-4.793zm-1.598 5.325h-1.065v-1.065h1.065zm2.13 0h-1.065v-1.065h1.066v1.065zm2.13 0h-1.064v-1.065h1.065v1.065z" fill="#ff5c62"/><g transform="translate(0 41.006)"><use fill="#000" filter="url(#f)" xlink:href="#e"/><use fill="#fff" xlink:href="#e"/></g><g transform="translate(0 41.006)"><use fill="#000" filter="url(#h)" xlink:href="#g"/><use fill="#fff" xlink:href="#g"/></g><path d="m10.817 43.67-1.369-.001c-1.537 0-2.531 1.02-2.531 2.597v1.198h-1.377a.215.215 0 0 0 -.216.215v1.735c0 .12.097.216.216.216h1.376v4.378c0 .119.096.215.215.215h1.796a.215.215 0 0 0 .215-.215v-4.378h1.609a.215.215 0 0 0 .215-.216v-1.734a.216.216 0 0 0 -.215-.215h-1.61v-1.015c0-.488.117-.736.753-.736h.922a.215.215 0 0 0 .215-.216v-1.611a.215.215 0 0 0 -.215-.215z" fill="#0680dc" fill-rule="nonzero"/><g fill="#b2b9bc"><g transform="translate(53.599 62.614)"><use opacity=".169" xlink:href="#i"/><path d="m10.526 7.469s-2.924.717-2.924 3.584c0 1.584 1.309 2.867 2.924 2.867 1.614 0 2.923-1.283 2.923-2.867 0-1.894-1.595-2.507-2.192-2.507zm0 8.602c-2.196 0-6.579 1.08-6.579 3.226v1.792h13.157v-1.792c0-2.145-4.383-3.226-6.578-3.226z" mask="url(#v)"/></g><rect height="4.393" rx="2.197" width="85.52" x="21.145" y="92.49"/><rect height="4.393" rx="2.197" width="67.101" x="30.355" y="101.277"/></g><g transform="translate(152.308 26.627)"><use fill="#000" filter="url(#k)" xlink:href="#j"/><use fill="#fff" xlink:href="#j"/><g transform="translate(86.805)"><use fill="#000" filter="url(#m)" xlink:href="#l"/><use fill="#fff" xlink:href="#l"/></g><path d="m100.118 4.751a4.363 4.363 0 0 1 -1.254.345c.451-.27.796-.7.96-1.208-.423.25-.89.431-1.388.53a2.185 2.185 0 0 0 -3.723 1.992 6.203 6.203 0 0 1 -4.503-2.283 2.184 2.184 0 0 0 .676 2.916 2.185 2.185 0 0 1 -.99-.274v.028c0 1.058.753 1.941 1.752 2.142a2.213 2.213 0 0 1 -.987.036 2.186 2.186 0 0 0 2.041 1.518 4.384 4.384 0 0 1 -3.235.903 6.176 6.176 0 0 0 3.35.983c4.019 0 6.216-3.329 6.216-6.216l-.007-.283c.429-.306.8-.69 1.092-1.129z" fill="#0091ff" fill-rule="nonzero"/><path d="m88.402 1.598h12.781v12.78h-12.78z"/><rect fill="#f2f3f4" height="25.422" rx="2" stroke="#b2b9bc" stroke-width=".5" width="83.38" x="4.642" y="14.669"/><g fill="#b2b9bc"><rect height="2" rx="1" width="54.017" x="8.783" y="18.888"/><rect height="2" rx="1" width="72.022" x="8.783" y="26.357"/><rect height="2" rx="1" width="61.043" x="8.783" y="33.825"/></g></g><g transform="translate(72.426 148.58)"><use fill="#000" filter="url(#o)" xlink:href="#n"/><use fill="#fff" xlink:href="#n"/><g transform="translate(45.799)"><use fill="#000" filter="url(#q)" xlink:href="#p"/><use fill="#fff" xlink:href="#p"/></g><g fill-rule="nonzero"><path d="m63.372 11.597c0-.548-.044-.947-.138-1.361h-6.122v2.47h3.594c-.073.614-.464 1.538-1.333 2.16l-.013.082 1.936 1.53.134.015c1.232-1.162 1.942-2.87 1.942-4.896" fill="#4285f4"/><path d="m57.112 18.105c1.76 0 3.239-.592 4.318-1.612l-2.057-1.628c-.551.392-1.29.666-2.26.666-1.725 0-3.189-1.161-3.71-2.766l-.077.007-2.012 1.59-.027.075c1.072 2.174 3.275 3.668 5.825 3.668" fill="#34a853"/><path d="m53.403 12.765a4.175 4.175 0 0 1 -.218-1.316c0-.459.08-.902.21-1.317l-.003-.088-2.038-1.615-.067.032a6.775 6.775 0 0 0 0 5.976z" fill="#fbbc05"/><path d="m57.112 7.367c1.225 0 2.05.54 2.521.99l1.84-1.834c-1.13-1.072-2.6-1.73-4.36-1.73-2.551 0-4.754 1.494-5.826 3.668l2.109 1.671c.528-1.604 1.992-2.765 3.716-2.765" fill="#eb4335"/></g><g fill="#b2b9bc"><rect height="7.919" rx="3.945" width="7.89" x="13.15" y="17.342"/><rect height="7.919" opacity=".804" rx="3.945" width="7.89" x="24.546" y="17.342"/><rect height="7.919" opacity=".602" rx="3.945" width="7.89" x="35.943" y="17.342"/></g></g><g transform="translate(176.805 110.77)"><use fill="#000" filter="url(#s)" xlink:href="#r"/><use fill="#fff" xlink:href="#r"/></g><path d="m200.91 129.265c-2.023 0-3.144 1.534-3.144 1.534s-1.122-1.534-3.144-1.534c-2.123 0-3.843 1.807-3.843 4.037 0 4.036 6.987 9.174 6.987 9.174s6.987-5.138 6.987-9.174c0-2.23-1.72-4.037-3.843-4.037z" fill="#b2b9bc" fill-rule="nonzero"/><g transform="translate(197.329 110.77)"><use fill="#000" filter="url(#u)" xlink:href="#t"/><use fill="#fff" xlink:href="#t"/></g><path d="m202.724 118.018v-1.27h-1.266v-.444h1.266v-1.27h.458v1.27h1.266v.444h-1.266v1.27zm2.651.678v-.376l1.553-1.381c.334-.3.567-.548.697-.743s.196-.4.196-.613a.77.77 0 0 0 -.25-.599.875.875 0 0 0 -.612-.228c-.233 0-.437.06-.615.18-.177.118-.355.305-.535.56l-.354-.259c.208-.312.428-.543.66-.693s.526-.225.88-.225c.384 0 .7.115.951.345.25.23.376.522.376.875v.013c0 .3-.08.566-.238.798-.16.232-.44.525-.844.879l-1.143 1.023h2.268v.444zm4.352 0 1.931-3.872h-2.353v-.444h2.904v.364l-1.944 3.952zm6.038-.277c-.306.226-.689.339-1.15.339-.46 0-.843-.114-1.149-.343-.305-.228-.458-.52-.458-.878v-.012c0-.247.08-.46.238-.642.16-.18.373-.32.642-.419-.489-.226-.733-.557-.733-.992v-.013c0-.324.143-.596.43-.814.288-.217.631-.326 1.03-.326.4 0 .743.109 1.03.326.288.218.432.49.432.814v.013c0 .435-.245.766-.734.992.27.103.483.243.642.42a.917.917 0 0 1 .239.634v.013c0 .361-.153.657-.459.888zm-1.846-2.35c.187.149.42.223.697.223s.51-.074.697-.222a.692.692 0 0 0 .28-.568v-.012a.645.645 0 0 0 -.28-.533 1.122 1.122 0 0 0 -.697-.213c-.282 0-.515.07-.7.213a.647.647 0 0 0 -.279.533v.012c0 .23.094.42.282.568zm-.123 2.029c.204.156.477.234.82.234.342 0 .614-.078.816-.234s.302-.347.302-.573v-.013c0-.238-.108-.434-.324-.589-.216-.154-.48-.23-.794-.23s-.58.076-.795.23c-.216.155-.324.35-.324.59v.012c0 .226.1.417.3.573z" fill="#b2b9bc" fill-rule="nonzero"/></g></g></svg>
