
<svg height="169" viewBox="0 0 160 169" width="160" xmlns="http://www.w3.org/2000/svg"><g fill="none" fill-rule="evenodd"><ellipse cx="80.021" cy="166" fill="#b2b9bc" rx="80" ry="3"/><path d="m25.99 36s-12.826-34.04-.874-28.361c11.951 5.679 15.905 25.611 15.905 25.611z" fill="#ff5c62"/><path d="m22.693 7.794c-.523 0-.885.182-1.173.59-2.619 3.709 2.5 19.888 5.007 26.698l13.487-2.461c-.937-3.893-5.261-19.487-15.357-24.272-.777-.368-1.437-.555-1.964-.555zm3.243 29.206a.911.911 0 0 1 -.854-.585c-.912-2.415-8.805-23.75-5.059-29.055.628-.89 1.552-1.36 2.67-1.36.814 0 1.715.24 2.754.732 12.336 5.847 16.39 25.591 16.557 26.429a.887.887 0 0 1 -.14.677.912.912 0 0 1 -.589.377l-15.172 2.77a.94.94 0 0 1 -.167.015z" fill="#32454c"/><path d="m21.873 7c-5.873 2.312 4.098 29 4.098 29l11.05-2.039c-3.424-16.065-10.958-23.786-15.148-26.961" fill="#ffc2c4"/><path d="m21.74 8.006c-.807.81-1.864 3.721.778 14.135 1.413 5.573 3.324 11.025 4.012 12.93l9.49-1.743c-3.347-14.667-10.153-22.05-14.28-25.322zm4.197 28.994a.91.91 0 0 1 -.853-.588c-.026-.068-2.56-6.844-4.33-13.82-2.524-9.947-2.294-15.354.704-16.529a.918.918 0 0 1 .887.121c4.334 3.27 12.132 11.214 15.655 27.674a.895.895 0 0 1 -.134.689.912.912 0 0 1 -.59.385l-11.174 2.053a.933.933 0 0 1 -.166.015z" fill="#32454c"/><path d="m127.02 54.213s6.012-3.532 5.788-5.198c-.225-1.667 9.494-1.754 7.49 3.424 0 0 6.215 4.484-4.963 11.561l-8.314-9.787" fill="#ff5c62"/><path d="m128.292 54.412 7.229 8.506c4.605-3.063 5.65-5.442 5.695-6.922.055-1.825-1.358-2.866-1.372-2.876a.895.895 0 0 1 -.312-1.05c.303-.784.287-1.403-.05-1.892-.659-.955-2.453-1.383-3.938-1.383-.975 0-1.602.172-1.856.294-.107 1.714-3.08 3.885-5.396 5.323zm7.054 10.588a.903.903 0 0 1 -.689-.318l-8.423-9.912a.895.895 0 0 1 .23-1.353c2.808-1.65 5.343-3.708 5.426-4.405-.051-.355.07-.739.342-1.049.765-.869 2.57-.963 3.312-.963 1.902 0 4.326.568 5.425 2.163.415.602.795 1.579.44 2.951.646.652 1.668 1.996 1.61 3.936-.089 2.882-2.507 5.846-7.189 8.81a.9.9 0 0 1 -.484.14z" fill="#32454c"/><path d="m136.921 78s13.321 10.807 9.366 15.523c-3.956 4.716-12.908-3.534-19.06-1.666-5.448 1.654-10.034.556-12.002-4.179-2.671-6.426 21.696-9.678 21.696-9.678" fill="#fffffe"/><path d="m128.79 90.73c2.395 0 4.937.953 7.395 1.874 2.182.817 4.243 1.59 5.919 1.59 1.149 0 1.983-.37 2.625-1.165 2.61-3.224-5.327-11.246-8.719-14.176-5.207.76-17.87 3.32-19.96 6.988-.29.507-.326.987-.117 1.51 1.17 2.916 3.375 4.395 6.555 4.395 1.243 0 2.612-.232 4.069-.691a7.428 7.428 0 0 1 2.233-.324zm13.314 5.27c-1.994 0-4.2-.827-6.536-1.702-2.311-.866-4.7-1.76-6.778-1.76-.628 0-1.186.079-1.706.242-1.628.513-3.174.772-4.596.772-3.919 0-6.755-1.909-8.203-5.52-.417-1.038-.34-2.108.224-3.096 2.967-5.205 19.747-7.665 21.65-7.928a.886.886 0 0 1 .688.2c1.4 1.177 13.556 11.657 9.258 16.968-.979 1.21-2.325 1.824-4.001 1.824z" fill="#32454c"/><path d="m39.343 81s-14.765 4.453-13.207 8.958c1.558 4.506 3.422 9.447 27.885 2.82" fill="#fffffe"/><path d="m35.623 97c-1.724 0-3.193-.161-4.419-.482-4.254-1.114-5.232-3.952-6.017-6.231-.279-.808-.206-1.678.21-2.515 2.044-4.11 12.5-7.375 13.685-7.734a.897.897 0 0 1 1.118.625.928.928 0 0 1 -.609 1.147c-3.015.914-11.156 3.917-12.59 6.802-.255.513-.19.85-.118 1.058 1.42 4.117 3.027 8.784 27.007 2.265a.899.899 0 0 1 1.1.657.926.926 0 0 1 -.64 1.13c-8.061 2.192-14.25 3.278-18.726 3.278" fill="#32454c"/><path d="m78.451 51.868s60.03-22.283 62.57 19.997c0 0-20.202 45.336-101 18.807z" fill="#ff5c62"/><path d="m139.646 71.867c.281.414.55.789.808 1.133.389-.719.567-1.128.567-1.128-.4-6.826-2.235-11.998-5.039-15.872-.91 1.503-2.755 6.414 3.664 15.867m-65.09 23.268-1.536 3.055c24.372 2.92 40.588-2.484 51-9.189h-7.166s-20.017 10.798-42.3 6.135" fill="#fffffe"/><path d="m42.578 90.328c16.073 5.214 30.87 7.857 43.999 7.857 21.717 0 35.189-7.294 42.666-13.413 7.29-5.965 10.421-11.95 10.973-13.087-1.068-16.504-11.118-24.87-29.875-24.87-14.37 0-29.008 5.117-30.802 5.764zm43.999 9.672c-13.695 0-29.151-2.827-45.94-8.402a.915.915 0 0 1 -.357-1.501l38.13-38.94a.886.886 0 0 1 .324-.212c.159-.06 16.016-5.945 31.607-5.945 19.682 0 30.637 9.27 31.678 26.808a.922.922 0 0 1 -.076.425c-.126.286-3.184 7.085-11.574 13.95-7.702 6.303-21.552 13.817-43.792 13.817z" fill="#32454c"/><path d="m80.83 51.823-20.992 23.309-4.817 10.84s16.621 1.908 27.943-25.3c1.993-4.79 3.282-8.237 4.057-10.672-2.689.71-4.832 1.376-6.19 1.823" fill="#fffffe"/><path d="m115.02 89.275s13.85 11.287 27.686-5.435c0 0 15.333 8.464 16.27.384.935-8.081-12.807-18.539-15.178-14.558 0 0-4.42-7.443-8.115-6.6" fill="#ff5c62"/><path d="m158.973 84.58c.61-4.97-4.795-10.856-9.508-13.58-2.022 1.897-3.552 4.644-4.21 8.583-.387 2.305-.278 4.347.205 6.162 4.73 1.943 12.83 4.405 13.513-1.165" fill="#fffffe"/><path d="m126.01 94a18.69 18.69 0 0 1 -2.52-.171c-5.398-.738-8.982-3.53-9.132-3.648a.882.882 0 0 1 -.14-1.248.904.904 0 0 1 1.26-.14c.034.026 3.404 2.635 8.335 3.287 6.57.866 12.704-1.98 18.234-8.462a.906.906 0 0 1 1.114-.208c2.722 1.456 10.483 4.878 13.667 3.245.785-.403 1.23-1.12 1.358-2.194.621-5.2-6.345-12.138-11.049-13.74-.613-.208-2.088-.614-2.54.122a.901.901 0 0 1 -1.536 0c-1.066-1.74-4.674-6.578-7.188-6.024a.898.898 0 0 1 -1.073-.672.888.888 0 0 1 .68-1.06c3.482-.774 7.098 3.845 8.527 5.929.737-.409 1.9-.592 3.715.026 5.335 1.817 12.998 9.346 12.248 15.627-.198 1.656-.999 2.887-2.316 3.563-4.096 2.101-12.215-1.668-14.705-2.926-6.121 6.908-12.245 8.694-16.94 8.694" fill="#32454c"/><path d="m80.02 95.869s-16.876 11.525-32.018 5.271c-15.143-6.253 17.794-17.14 17.794-17.14" fill="#ff5c62"/><path d="m59.124 87c-8.682 3.469-21.733 9.943-11.144 14.2 7.314 2.94 15.034 1.82 21.04-.109-1.297-5.17-3.76-11.801-9.896-14.091" fill="#fffffe"/><path d="m57.8 103c-3.346 0-6.81-.526-10.213-1.866-3.097-1.22-4.632-2.789-4.564-4.664.102-2.798 3.88-5.824 11.551-9.249 5.432-2.426 10.91-4.161 10.965-4.178a.908.908 0 0 1 1.136.566.876.876 0 0 1 -.58 1.108c-8.15 2.57-21.132 8.052-21.269 11.816-.048 1.316 1.842 2.341 3.437 2.97 14.614 5.757 31.189-4.864 31.355-4.972a.916.916 0 0 1 1.251.243.867.867 0 0 1 -.25 1.221c-.553.36-10.928 7.005-22.82 7.005" fill="#32454c"/><path d="m48.986 28s-48.926 3.037-31.028 38.828c0 0-2.157 15.792 4.024 15.355s21.156 6.48 41.28-13.452c20.124-19.931 12.235-17.695 12.235-17.695s-.237-20.533-26.511-23.036" fill="#ff5c62"/><path d="m57.494 73.025c5.934-9.343-40.243-18.34-40.243-18.34-.78-13.83 9.664-15.84 13.747-19.415 1.753-1.536 1.464-2.579.566-3.27-11.956 4.527-23.955 14.252-13.608 34.915 0 0-2.156 15.761 4.021 15.325 2.016-.142 13.103 3.798 29.982-4.988 6.238-4.702 4.463-2.539 5.535-4.227" fill="#fffffe"/><path d="m22.528 81.362c1.099 0 2.374.153 3.852.33 1.999.239 4.265.51 6.88.51 10.237 0 19.851-4.598 29.392-14.058 12.663-12.557 13.525-15.695 13.533-16.3a1.496 1.496 0 0 0 -.388.041.914.914 0 0 1 -.783-.15.899.899 0 0 1 -.361-.706c0-.048-.11-5.036-3.325-10.234-4.292-6.938-11.815-10.973-22.363-11.995-1.433.106-24.413 2.008-31.824 14.786-3.526 6.08-3.009 13.78 1.539 22.884.08.161.11.342.086.52-.399 2.927-.935 11.088 1.333 13.671.48.547 1.03.777 1.741.724.214-.016.446-.023.688-.023zm10.732 2.638c-2.724 0-5.148-.29-7.096-.523-1.698-.204-3.109-.376-4.196-.299-1.303.09-2.376-.362-3.23-1.335-3.037-3.459-2.05-12.814-1.798-14.819-4.721-9.573-5.18-17.76-1.361-24.34 8.1-13.959 32.315-15.619 33.342-15.682.047-.003.095-.002.142.002 13.979 1.333 20.687 7.767 23.853 12.929 2.621 4.275 3.304 8.335 3.481 10.125.691.072 1.213.43 1.452 1.006.4.964 1.338 3.221-13.922 18.353-9.896 9.813-19.927 14.583-30.667 14.583z" fill="#32454c"/><path d="m12.02 75.29s6.257 13.803 18.688 1.815c0 0 5.922-8.819 1.93-14.105l-20.617 12.29" fill="#32454c"/><path d="m35.436 33s-7.547-35.496 4.042-31.719 19.542 30.536 19.542 30.536" fill="#ff5c62"/><path d="m36.265 33a.888.888 0 0 1 -.867-.705c-.56-2.652-5.309-26.06.426-31.23.842-.76 2.33-1.506 4.636-.75 11.546 3.787 19.204 29.303 19.524 30.388a.887.887 0 0 1 -1.7.506c-.076-.257-7.709-25.705-18.375-29.203-1.222-.4-2.17-.275-2.9.382-4.214 3.799-1.34 22.61.124 29.538a.89.89 0 0 1 -.868 1.074" fill="#32454c"/><path d="m35.142 32s8.374-7.007 13.126-2.74c4.753 4.268-1.022-15.73-7.074-27.104a10.826 10.826 0 0 0 -1.976-.89c-9.67-3.174-5.497 22.97-4.076 30.734" fill="#ffc2c4"/><path d="m37.68 1.825c-.763 0-1.365.294-1.892.926-2.565 3.075-2.578 13.385-.06 27.716 1.826-1.279 5.407-3.432 8.83-3.432 1.73 0 3.217.544 4.42 1.618.088.079.165.14.23.19.112-.947-.124-3.777-2.092-10.013-1.794-5.681-4.245-11.67-6.583-16.088a9.874 9.874 0 0 0 -1.603-.695 4.074 4.074 0 0 0 -1.25-.222zm-2.59 31.175a.913.913 0 0 1 -.899-.747c-1.713-9.314-3.968-25.682.193-30.67 1.256-1.507 3.016-1.955 5.113-1.271.712.232 1.44.558 2.166.968.15.085.274.211.356.364 4.568 8.535 10.463 25.488 8.673 28.468-.276.46-.73.725-1.242.725-.525 0-1.062-.262-1.69-.824-.87-.776-1.918-1.153-3.203-1.153-4.1 0-8.834 3.89-8.882 3.929a.916.916 0 0 1 -.584.211z" fill="#32454c"/><path d="m143.02 21.747s-5.594-.822-6.74 5.72c-1.145 6.542-4.114 7.695-15.833 6.802s-10.38 2.731-10.38 2.731l7.96-8.052 7.38-9.472 10.437-2.476 7.177 4.747" fill="#af2b30"/><path d="m116.986 32.467c1.054 0 2.228.046 3.49.138 2.36.172 4.178.252 5.721.252 6.908 0 8.428-1.59 9.247-6.064.728-3.978 3.122-5.444 5.005-5.972l-4.724-2.987-9.819 2.227-7.225 8.866a.858.858 0 0 1 -.07.077l-3.65 3.528a29.302 29.302 0 0 1 2.025-.065zm-7.015 4.533a.898.898 0 0 1 -.844-.571c-.05-.129-.277-.812.142-1.62.412-.793 1.288-1.391 2.606-1.78l5.43-5.25 7.388-9.066a.903.903 0 0 1 .501-.31l10.497-2.38a.916.916 0 0 1 .692.119l7.15 4.521c.29.147.488.445.488.787a.894.894 0 0 1 -1.038.877s-.18-.023-.472-.023c-1.647 0-4.525.624-5.29 4.802-1.043 5.695-3.722 7.523-11.024 7.523-1.59 0-3.45-.082-5.854-.257-3.285-.239-5.85-.154-7.538.245l-2.2 2.128a.91.91 0 0 1 -.634.255z" fill="#0a0b09"/><path d="m78.02 46.432s4.613 2.708 14.968-10.556c10.355-13.263 16.335-17.132 22.082-17.07 0 0 2.963.804 4.281-.65 0 0 18.777-18.233 32.616-3.24 9.398 10.749 5.05 22.164 5.05 22.164s-3.43-11.619-16.808-15.443c-13.38-3.824-18.209 9.29-31.26 18.34-13.052 9.05-22.097 13.195-30.736 13.018l-.192-6.563" fill="#d9252a"/><path d="m78.845 47.765.133 4.453c7.842-.103 16.409-3.786 29.432-12.636 4.188-2.846 7.597-6.184 10.604-9.129 5.32-5.21 9.914-9.71 16.674-9.71 1.523 0 3.139.237 4.803.703 9.934 2.783 14.559 9.543 16.411 13.251.685-3.742.906-11.181-5.538-18.405-3.44-3.651-7.525-5.512-12.127-5.512-9.75 0-18.809 8.312-19.259 8.731-.702.743-1.759 1.12-3.14 1.12-.86 0-1.611-.152-1.897-.218h-.027c-4.925 0-10.431 2.794-21.294 16.43-7.196 9.033-11.863 10.93-14.51 10.93-.092 0-.18-.003-.265-.008zm-.203 6.235c-.184 0-.367-.002-.551-.005a.893.893 0 0 1 -.877-.864l-.193-6.446c-.01-.335.142-.664.437-.825.295-.16.627-.16.905.027.005 0 .259.105.747.105 1.484 0 5.733-1 13.106-10.255 9.806-12.309 16.17-17.105 22.698-17.105l.147.001a.911.911 0 0 1 .221.03c.006.002.727.188 1.556.188.602 0 1.41-.1 1.846-.57.012-.014.026-.027.04-.04.396-.378 9.833-9.241 20.513-9.241 5.117 0 9.643 2.05 13.451 6.093 9.686 10.857 5.428 22.221 5.243 22.7a.9.9 0 0 1 -.87.568.894.894 0 0 1 -.824-.634c-.033-.108-3.483-10.996-16.231-14.567-1.528-.428-2.94-.636-4.318-.636-6.026 0-10.17 4.059-15.417 9.197-3.06 2.998-6.53 6.395-10.85 9.331-13.534 9.198-22.452 12.948-30.779 12.948z" fill="#32454c"/><path d="m91.905 45a.887.887 0 0 1 -.48-1.63c9.959-6.441 26.89-24.897 27.06-25.083a.882.882 0 0 1 1.25-.054c.36.33.383.891.053 1.252-.7.765-17.255 18.81-27.404 25.373a.877.877 0 0 1 -.479.142" fill="#32454c"/><path d="m74.193 46.152s3.555-1.017 4.565 2.208l5.263.165s-12.168 32.923-37.763 43.255c0 0-9.097 2.441-14.237-8.911 0 0 16.873-1.898 27.42-11.872s15.445-19.043 15.445-19.043l-.693-5.8" fill="#d9252a"/><path d="m33.267 83.65c3.39 6.53 8.184 7.542 10.822 7.542.984 0 1.67-.141 1.849-.182 22.275-9.032 34.41-35.76 36.874-41.707l-4-.125a.898.898 0 0 1 -.828-.632c-.366-1.17-1.177-1.738-2.48-1.738-.088 0-.172.003-.253.008l.592 4.958a.911.911 0 0 1 -.103.54c-.203.378-5.108 9.35-15.68 19.35-9.13 8.637-22.624 11.336-26.793 11.986zm10.822 9.35c-3.21 0-9.167-1.26-12.987-9.7a.909.909 0 0 1 .036-.82.896.896 0 0 1 .68-.453c.167-.019 16.774-1.995 27.015-11.682 9.408-8.9 14.33-17.14 15.194-18.65l-.66-5.53a.904.904 0 0 1 .646-.978c.067-.02.677-.187 1.491-.187 1.864 0 3.247.842 3.957 2.39l4.69.146c.29.01.556.158.717.4a.909.909 0 0 1 .096.82c-.03.083-3.162 8.471-9.412 18.009-5.788 8.831-15.518 20.502-29.008 25.949a.922.922 0 0 1 -.102.034c-.039.01-.956.252-2.353.252z" fill="#32454c"/><path d="m77.838 55a.778.778 0 0 1 -.38-.1c-.4-.224-.553-.748-.343-1.172 1.444-2.903 1.265-4.739 1.263-4.757-.052-.473.265-.905.71-.964.446-.06.851.268.912.74.011.094.274 2.347-1.438 5.79a.812.812 0 0 1 -.724.463" fill="#0a0b09"/><path d="m26.95 49.165c.324 2.479-.5 4.638-1.843 4.822-1.341.185-2.692-1.674-3.016-4.152s.501-4.637 1.843-4.822 2.692 1.674 3.016 4.152" fill="#32454c"/><path d="m30.19 65.518s22.652-4.345 19.537 12.13-15.43-10.372-21.706-10.101l2.168-2.029" fill="#ff8d91"/><path d="m29.734 67c2.407 1.118 5.095 4.276 7.909 7.581 3.039 3.57 6.483 7.617 8.63 7.617 1.487 0 2.28-2.544 2.683-4.678.64-3.397.176-6.083-1.384-7.985-2.53-3.086-7.54-3.733-11.3-3.733-2.728 0-5.02.341-5.755.464l-.783.733zm16.54 17c-2.967 0-6.376-4.005-9.985-8.245-2.945-3.46-6.283-7.38-8.28-7.38l-.057.001a.898.898 0 0 1 -.862-.554.907.907 0 0 1 .216-1.007l2.19-2.051a.892.892 0 0 1 .44-.225c.115-.022 2.851-.539 6.336-.539 4.142 0 9.704.76 12.675 4.386 1.915 2.335 2.508 5.522 1.762 9.47-.287 1.52-1.16 6.143-4.435 6.144z" fill="#32454c"/><path d="m43.123 74a.897.897 0 0 1 -.814-.527c-2.59-5.647-12.293-5.659-12.385-5.653h-.005a.904.904 0 0 1 -.898-.904.904.904 0 0 1 .89-.916c.441 0 10.95-.004 14.026 6.706a.915.915 0 0 1 -.436 1.209.888.888 0 0 1 -.378.085" fill="#32454c"/><path d="m18.228 54s-7.52 5.964-14.193 6.654c0 0-4.841 11.606 6.631 16.51s23.355-13.364 23.355-13.364" fill="#fffffe"/><path d="m14.745 79c-1.478 0-2.977-.281-4.48-.924-6.387-2.732-7.993-7.46-8.214-10.945-.237-3.712 1.008-6.747 1.062-6.875a.9.9 0 0 1 .736-.552c6.384-.66 13.75-6.452 13.824-6.51a.89.89 0 0 1 1.261.156.92.92 0 0 1 -.154 1.28c-.309.244-7.453 5.86-14.19 6.819-.743 2.176-3.035 10.923 6.374 14.947 10.724 4.586 22.292-12.94 22.408-13.118a.892.892 0 0 1 1.245-.259.92.92 0 0 1 .255 1.263c-.442.68-9.707 14.717-20.127 14.718" fill="#32454c"/><path d="m8.003 61.714c.244 1.762-2.096 5.986-4.294 6.27-2.197.286-3.419-3.474-3.663-5.235-.245-1.762 1.339-3.42 3.536-3.706 2.197-.285 4.176.911 4.421 2.672" fill="#32454c"/><path d="m37.52 90a8.32 8.32 0 0 1 -.72-.028c-.463-.04-.81-.527-.777-1.086.034-.56.438-.981.899-.94.934.077 3.771-.022 4.553-1.482.252-.471.772-.606 1.162-.3.39.304.501.933.249 1.404-1.156 2.158-3.997 2.432-5.367 2.432" fill="#0a0b09"/></g></svg>
